<svg width="500.000000pt" height="500.000000pt" viewBox="0 0 500.000000 500.000000" xmlns="http://www.w3.org/2000/svg">
  <g transform="translate(0.000000,500.000000) scale(0.100000,-0.100000)" fill="#fefefe" stroke="none">
    <path d="M0 2500 l0 -2500 2500 0 2500 0 0 2500 0 2500 -2500 0 -2500 0 0
-2500z m726 1335 c14 -9 34 -30 44 -48 l20 -32 0 -38 0 -38 -15 -29 -15 -28
-29 -21 -29 -21 -31 -6 -30 -6 -45 22 -45 21 -21 33 -20 33 0 39 0 39 24 36
25 36 33 17 33 17 38 -5 38 -4 25 -17z m484 -3 l25 -18 24 -47 23 -48 -17 -45
-17 -44 -31 -24 -32 -24 -31 -6 -31 -7 -29 11 c-16 6 -41 23 -56 37 l-28 26
-11 34 -11 33 7 30 7 30 26 32 26 31 31 13 30 14 35 -5 35 -4 25 -19z m447 17
c15 -5 40 -22 55 -36 l28 -26 11 -34 11 -33 -7 -31 -7 -30 -29 -34 -30 -34
-35 -11 -34 -12 -31 7 -30 7 -34 29 -34 30 -11 35 -12 34 7 30 7 30 26 32 26
31 31 13 c37 16 56 17 92 3z m-492 -843 l25 -16 0 -94 0 -93 -21 -19 -21 -19
-63 0 -63 0 -21 19 -22 20 3 95 3 96 35 18 35 18 42 -4 43 -5 25 -16z m1583
-11 l22 -26 0 -69 0 -69 -11 -25 -12 -25 -35 -12 -34 -11 -40 5 -39 5 -24 16
-25 16 0 84 c0 47 3 92 6 101 l7 17 31 14 31 14 50 -5 50 -4 23 -26z m1130 0
l22 -26 0 -69 0 -69 -11 -25 -12 -25 -35 -12 -34 -11 -40 5 -39 5 -24 16 -25
16 0 84 c0 47 3 92 6 101 l7 17 31 14 31 14 50 -5 50 -4 23 -26z m-3278 -20
l0 -45 40 0 40 0 0 45 0 45 35 0 35 0 0 -125 0 -125 -35 0 -35 0 0 45 0 45
-40 0 -40 0 0 -45 0 -45 -35 0 -35 0 0 125 0 125 35 0 35 0 0 -45z m890 -15
l0 -60 14 0 14 0 6 15 5 15 17 0 16 0 5 -20 5 -20 14 0 14 0 0 65 0 65 35 0
35 0 0 -85 0 -85 -16 -40 -17 -41 -30 3 -31 3 -10 33 -9 33 -16 -3 -15 -3 -10
-33 -9 -32 -29 0 -29 0 -15 35 -14 34 0 91 0 90 35 0 35 0 0 -60z m848 33 l-3
-28 -32 -3 -33 -3 0 -95 0 -95 -37 3 -38 3 -3 93 -3 92 -29 0 -30 0 0 30 0 30
106 0 105 0 -3 -27z m1097 2 l25 -24 0 -74 0 -74 -21 -27 -20 -26 -90 0 -89 0
0 125 0 125 85 0 86 0 24 -25z m852 3 l23 -21 0 -32 0 -31 -13 -18 -13 -17
-39 -9 c-22 -5 -52 -10 -66 -10 l-27 0 -5 26 -5 26 12 3 c6 2 28 6 49 10 l37
6 0 14 0 14 -62 3 -63 3 -3 28 -3 27 77 0 78 0 23 -22z m-67 -198 l0 -30 -40
0 -40 0 0 23 c0 31 7 37 47 37 l33 0 0 -30z m-3475 -634 l33 -14 11 -20 11
-21 0 -96 0 -96 -25 -24 -24 -25 -106 0 -105 0 0 148 0 149 7 6 6 7 79 0 79 0
34 -14z m445 -1 l12 -15 -6 -25 -6 -25 -25 0 -25 0 0 -79 0 -80 28 -3 27 -3 0
-30 0 -30 -101 -3 -102 -3 -6 17 -6 17 5 18 6 19 30 0 29 0 0 80 0 80 -30 0
-30 0 -6 25 -6 25 12 15 12 15 88 0 88 0 12 -15z m410 0 l12 -15 -6 -25 -6
-25 -65 0 -65 0 0 -80 0 -80 40 0 40 0 0 41 0 40 43 -3 42 -3 3 -49 c2 -27 1
-60 -3 -73 l-5 -23 -91 0 -90 0 -28 15 -28 14 -7 23 c-3 13 -6 61 -6 108 l0
86 15 22 16 22 32 9 c18 5 57 10 88 10 l57 1 12 -15z m425 -25 l0 -35 -27 -3
-28 -3 0 -79 0 -79 28 -3 27 -3 3 -32 3 -33 -105 0 -106 0 0 35 0 35 30 0 30
0 0 79 0 80 -27 3 -28 3 -3 23 c-2 13 -1 30 2 38 l6 15 97 -3 98 -3 0 -35z
m425 25 l12 -15 -6 -25 -6 -25 -40 0 -40 0 0 -115 0 -115 -45 0 -45 0 0 114 0
115 -37 3 -38 3 -3 23 c-2 13 -1 30 2 38 l5 14 114 0 115 0 12 -15z m377 3 c6
-7 22 -43 36 -81 l27 -67 0 -76 0 -75 -42 3 -43 3 -3 38 -3 37 -45 0 -44 0 0
-40 0 -40 -40 0 -40 0 0 75 0 75 25 66 c14 37 30 73 36 81 l11 13 58 0 58 0 9
-12z m341 -110 l3 -118 34 0 34 0 3 43 3 42 40 0 40 0 3 -77 3 -78 -126 0
-125 0 0 148 0 149 7 7 7 7 36 -3 35 -3 3 -117z m-2518 -548 l26 -45 15 -3 14
-2 25 47 25 48 40 0 40 0 3 -152 3 -153 -40 0 -39 0 -6 16 c-3 9 -6 40 -6 70
l0 54 -14 0 -14 0 -6 -15 -5 -15 -21 0 -20 0 -12 25 -11 25 -14 0 -13 0 0 -80
0 -80 -40 0 -40 0 0 148 0 149 7 7 7 7 35 -3 35 -3 26 -45z m617 -35 l33 -80
0 -72 0 -73 -45 0 -45 0 0 40 0 40 -45 0 -45 0 0 -41 0 -40 -42 3 -43 3 -3 57
-3 57 30 88 31 87 12 8 13 8 60 -2 60 -3 32 -80z m412 74 l32 -11 10 -26 10
-25 -7 -44 -6 -43 9 0 10 0 11 -25 12 -26 0 -49 0 -50 -45 0 -45 0 0 50 0 50
-44 0 -45 0 -3 -47 -3 -48 -42 -3 -43 -3 0 149 0 149 7 6 6 7 72 0 72 0 32
-11z m349 -51 l3 -58 17 0 17 0 27 60 26 60 37 0 37 0 -5 -17 c-4 -10 -12 -36
-18 -59 l-12 -40 27 -27 27 -27 -3 -68 -3 -67 -42 -3 -42 -3 -3 58 -3 58 -42
3 -43 3 0 -60 0 -61 -45 0 -45 0 0 148 0 149 7 7 7 7 36 -3 35 -3 3 -57z m596
40 l11 -18 -11 -17 -11 -18 -62 -3 -61 -3 0 -19 0 -19 48 -3 47 -3 0 -30 0
-30 -47 -3 -48 -3 0 -25 0 -24 64 0 64 0 6 -16 6 -17 -5 -18 -6 -19 -110 0
-109 0 0 148 0 149 7 7 7 7 99 -3 100 -3 11 -17z m421 -18 l0 -35 -37 -3 -38
-3 0 -115 0 -114 -45 0 -45 0 0 115 0 115 -40 0 -40 0 -6 25 -6 25 12 15 13
16 116 -3 116 -3 0 -35z m380 0 l0 -35 -27 -3 -28 -3 0 -79 0 -79 28 -3 27 -3
3 -32 3 -33 -106 0 -106 0 3 33 3 32 28 3 27 3 0 79 0 79 -27 3 -28 3 -3 23
c-2 13 -1 30 2 38 l6 15 97 -3 98 -3 0 -35z m303 -15 c28 -30 55 -55 61 -55
l10 0 3 53 3 52 35 0 35 0 3 -152 3 -153 -41 0 -40 0 0 33 0 32 -31 38 -30 37
-14 0 -14 0 -3 -67 -3 -68 -42 -3 -43 -3 0 149 0 149 7 6 c3 4 16 7 29 7 l22
0 50 -55z m567 15 l0 -35 -65 -5 -65 -5 0 -75 0 -75 38 -3 37 -3 0 40 0 41 45
0 45 0 0 -75 0 -75 -99 0 -100 0 -28 24 -28 24 0 100 0 100 24 26 23 25 22 4
c11 3 50 4 86 3 l65 -1 0 -35z" />
    <path d="M1057 2964 l-7 -7 0 -69 0 -68 35 0 36 0 -3 73 -3 72 -25 3 -26 3 -7
-7z" />
    <path d="M2624 2956 c-3 -7 -4 -40 -2 -72 l3 -59 33 -3 32 -3 0 75 0 76 -30 0
-31 0 -5 -14z" />
    <path d="M3754 2956 c-3 -7 -4 -40 -2 -72 l3 -59 33 -3 32 -3 0 75 0 76 -30 0
-31 0 -5 -14z" />
    <path d="M3310 2895 l0 -66 38 3 37 3 0 60 0 60 -37 3 -38 3 0 -66z" />
    <path d="M630 2020 l0 -80 40 0 40 0 0 80 0 80 -40 0 -40 0 0 -80z" />
    <path d="M2730 2074 c-6 -14 -10 -32 -10 -40 l0 -14 35 0 35 0 0 18 c0 9 -3
27 -6 40 l-6 22 -19 0 -19 0 -10 -26z" />
    <path d="M1136 1458 c-3 -13 -6 -31 -6 -40 l0 -18 35 0 35 0 0 14 c0 8 -4 26
-10 40 l-10 26 -19 0 -19 0 -6 -22z" />
    <path d="M1580 1456 l0 -36 31 0 30 0 -3 33 -3 32 -27 3 -28 3 0 -35z" />
  </g>
  <g transform="translate(0.000000,500.000000) scale(0.100000,-0.100000)" fill="#ffb946" stroke="none">
    <path d="M1555 3856 l-31 -13 -27 -32 -26 -32 -7 -35 -7 -36 12 -38 11 -38 34
-30 35 -30 31 -7 32 -7 34 7 34 6 35 30 35 31 11 38 12 38 -7 36 -7 35 -26 32
-27 32 -33 13 -32 14 -28 0 c-15 -1 -42 -7 -58 -14z" />
    <path d="M537 2183 l-7 -6 0 -159 0 -158 115 0 116 0 24 25 25 24 0 106 0 106
-11 21 -11 20 -33 14 -34 14 -89 0 -89 0 -6 -7z m163 -163 l0 -70 -30 0 -30 0
0 70 0 70 30 0 30 0 0 -70z" />
    <path d="M982 2178 l-12 -12 0 -22 c0 -12 3 -29 6 -38 l6 -16 29 0 29 0 0 -70
0 -70 -30 0 -30 0 -6 -24 -6 -25 7 -21 7 -21 111 3 112 3 0 40 0 40 -27 3 -28
3 0 70 0 69 24 0 24 0 6 16 c3 9 6 26 6 38 l0 22 -12 12 -12 12 -96 0 -96 0
-12 -12z" />
    <path d="M1433 2179 l-32 -9 -16 -22 -15 -22 0 -96 c0 -52 3 -105 6 -118 l7
-23 28 -14 28 -15 100 0 101 0 5 23 c4 13 5 50 3 82 l-3 60 -52 3 -53 3 0 -40
0 -41 -30 0 -30 0 0 70 0 70 64 0 64 0 6 16 c3 9 6 26 6 38 l0 22 -12 12 -12
12 -65 -1 -66 -1 -32 -9z" />
    <path d="M1814 2176 c-3 -8 -4 -29 -2 -48 l3 -33 28 -3 27 -3 0 -70 0 -69 -30
0 -30 0 0 -45 0 -45 116 0 115 0 -3 43 -3 42 -27 3 -28 3 0 69 0 69 28 3 27 3
0 45 0 45 -108 3 -107 3 -6 -15z" />
    <path d="M2194 2176 c-3 -8 -4 -29 -2 -48 l3 -33 38 -3 37 -3 0 -115 0 -114
55 0 55 0 0 115 0 115 39 0 39 0 6 16 c3 9 6 26 6 38 l0 22 -12 12 -12 12
-123 0 -124 0 -5 -14z" />
    <path d="M2681 2177 c-6 -8 -22 -44 -36 -81 l-25 -66 0 -85 0 -85 50 0 50 0 0
40 0 40 34 0 35 0 3 -37 3 -38 53 -3 52 -3 0 85 0 86 -27 67 c-14 38 -30 74
-36 81 l-9 12 -68 0 -68 0 -11 -13z m93 -109 c3 -13 6 -26 6 -30 l0 -8 -25 0
c-28 0 -28 0 -15 34 l10 26 9 0 9 0 6 -22z" />
    <path d="M3077 2184 l-7 -7 0 -159 0 -158 135 0 136 0 -3 88 -3 87 -50 0 -50
0 -3 -42 -3 -43 -24 0 -24 0 -3 118 -3 117 -45 3 -46 3 -7 -7z" />
    <path d="M537 1563 l-7 -6 0 -159 0 -158 50 0 50 0 0 83 1 82 15 -27 15 -28
29 0 29 0 10 18 10 17 1 -57 c0 -31 3 -63 6 -72 l6 -16 49 0 49 0 -2 163 -3
162 -50 0 -50 0 -26 -49 -27 -49 -14 24 c-8 13 -22 36 -32 52 l-16 27 -44 0
c-23 0 -46 -3 -49 -7z" />
    <path d="M1092 1562 l-12 -8 -31 -87 -30 -87 3 -68 3 -67 53 -3 52 -3 0 40 0
41 35 0 35 0 0 -40 0 -40 55 0 55 0 0 83 0 82 -33 80 -32 80 -70 3 -70 2 -13
-8z m88 -118 c13 -34 13 -34 -15 -34 l-25 0 0 8 c0 4 3 17 6 30 l6 22 9 0 9 0
10 -26z" />
    <path d="M1487 1563 l-7 -6 0 -159 0 -159 53 3 52 3 3 48 3 47 35 0 34 0 0
-50 0 -50 55 0 55 0 0 60 0 59 -12 26 c-6 14 -15 25 -20 25 l-10 0 7 31 7 31
-7 35 -6 35 -34 14 -34 14 -84 0 -84 0 -6 -7z m141 -111 l3 -22 -20 0 -21 0 0
26 0 25 18 -3 17 -3 3 -23z" />
    <path d="M1937 1564 l-7 -7 0 -159 0 -158 55 0 55 0 0 61 0 60 33 -3 32 -3 3
-58 3 -58 52 3 52 3 3 78 3 77 -27 27 -27 26 21 50 21 50 -5 8 -5 9 -45 0 -46
0 -26 -60 c-15 -33 -30 -60 -34 -60 l-7 0 -3 58 -3 57 -45 3 -46 3 -7 -7z" />
    <path d="M2397 1563 l-7 -6 0 -159 0 -158 120 0 120 0 6 24 6 25 -7 20 -6 21
-65 0 -64 0 0 14 0 15 48 3 47 3 0 40 0 40 -47 3 -48 3 0 10 0 9 58 0 58 0 12
12 12 12 0 26 0 26 -12 12 -12 12 -106 0 -107 0 -6 -7z" />
    <path d="M2792 1558 l-12 -12 0 -22 c0 -12 3 -29 6 -38 l6 -16 39 0 39 0 0
-115 0 -115 55 0 55 0 0 114 0 115 38 3 37 3 0 45 0 45 -125 3 -125 3 -13 -13z" />
    <path d="M3214 1556 c-3 -8 -4 -29 -2 -48 l3 -33 28 -3 27 -3 0 -69 0 -69 -27
-3 -28 -3 -3 -42 -3 -43 116 0 116 0 -3 43 -3 42 -27 3 -28 3 0 69 0 69 28 3
27 3 0 45 0 45 -108 3 -107 3 -6 -15z" />
    <path d="M3617 1563 l-7 -6 0 -159 0 -159 53 3 52 3 5 70 5 70 33 -40 32 -40
0 -32 0 -33 50 0 50 0 -2 163 -3 162 -45 0 -45 0 -3 -53 -3 -52 -51 55 -50 55
-32 0 c-18 0 -36 -3 -39 -7z" />
    <path d="M4134 1563 l-22 -4 -23 -25 -24 -26 0 -110 0 -110 28 -24 28 -24 110
0 109 0 0 85 0 85 -55 0 -55 0 0 -41 0 -40 -27 3 -28 3 0 65 0 65 65 5 65 5 0
45 0 45 -75 1 c-41 1 -85 0 -96 -3z" />
  </g>
  <g transform="translate(0.000000,500.000000) scale(0.100000,-0.100000)" fill="#7b4397" stroke="none">
    <path d="M582 3854 l-33 -17 -25 -36 -24 -36 0 -49 0 -49 20 -33 21 -33 45
-22 45 -21 39 5 39 5 31 22 30 22 16 30 16 30 0 44 0 44 -19 32 c-10 17 -30
40 -45 51 l-27 20 -48 4 -48 4 -33 -17z" />
    <path d="M1010 3023 l-35 -18 -3 -106 -3 -105 22 -20 21 -19 73 0 73 0 21 19
21 19 0 103 0 104 -26 17 -26 17 -51 3 -52 4 -35 -18z m98 -131 l3 -62 -26 0
-25 0 0 58 0 59 7 7 c4 4 14 5 23 4 l15 -3 3 -63z" />
    <path d="M2584 3026 l-31 -14 -7 -17 -6 -17 0 -94 0 -94 26 -16 25 -17 48 -5
49 -4 34 11 35 12 12 25 11 25 0 79 0 79 -23 26 -22 26 -60 5 -60 4 -31 -14z
m96 -132 l0 -65 -22 3 -23 3 -3 49 c-2 27 -1 55 2 62 l5 14 21 0 20 0 0 -66z" />
    <path d="M3714 3026 l-31 -14 -7 -17 -6 -17 0 -94 0 -94 26 -16 25 -17 48 -5
49 -4 34 11 35 12 12 25 11 25 0 79 0 79 -23 26 -22 26 -60 5 -60 4 -31 -14z
m96 -132 l0 -65 -22 3 -23 3 -3 49 c-2 27 -1 55 2 62 l5 14 21 0 20 0 0 -66z" />
    <path d="M520 2895 l0 -135 45 0 45 0 0 45 0 45 30 0 30 0 0 -45 0 -45 45 0
45 0 0 135 0 135 -45 0 -45 0 0 -45 0 -45 -30 0 -30 0 0 45 0 45 -45 0 -45 0
0 -135z" />
    <path d="M1410 2930 l0 -101 14 -34 15 -35 40 0 41 0 0 9 c0 5 5 22 11 38 l11
28 12 -35 13 -35 40 -3 40 -3 17 41 16 40 0 95 0 95 -45 0 -45 0 -1 -67 0 -68
-9 23 -9 22 -25 0 -25 0 -10 -17 -10 -18 -1 63 0 62 -45 0 -45 0 0 -100z" />
    <path d="M2120 2990 l0 -40 30 0 29 0 3 -92 3 -93 48 -3 47 -3 0 95 0 95 33 3
32 3 3 38 3 37 -115 0 -116 0 0 -40z" />
    <path d="M3230 2895 l0 -135 99 0 100 0 20 26 21 27 0 84 0 84 -25 24 -24 25
-96 0 -95 0 0 -135z m145 0 l0 -50 -27 -3 -28 -3 0 56 0 56 28 -3 27 -3 0 -50z" />
  </g>
  <g transform="translate(0.000000,500.000000) scale(0.100000,-0.100000)" fill="#a8a8a8" stroke="none">
    <path d="M1075 3856 l-31 -13 -27 -32 -26 -32 -7 -34 -6 -33 7 -32 7 -31 29
-34 30 -34 35 -11 35 -12 37 7 37 7 32 24 31 24 18 45 17 46 -12 38 c-6 21
-21 51 -33 66 l-21 27 -33 14 -33 14 -28 0 c-15 -1 -42 -7 -58 -14z" />
    <path d="M4102 2993 l3 -38 65 -5 65 -5 -25 -7 c-14 -4 -35 -8 -47 -8 l-22 0
-5 -9 -6 -9 6 -31 7 -31 36 0 c20 0 54 5 76 10 l39 9 13 17 13 18 0 41 0 42
-23 21 -23 22 -88 0 -87 0 3 -37z" />
    <path d="M4137 2833 c-4 -3 -7 -21 -7 -40 l0 -33 50 0 50 0 0 40 0 40 -43 0
c-24 0 -47 -3 -50 -7z" />
  </g>
  <g transform="translate(0.000000,500.000000) scale(0.100000,-0.100000)" fill="#ffebca" stroke="none">
    <path d="M1583 3863 l7 -6 7 6 6 7 -13 0 -13 0 6 -7z" />
    <path d="M1633 3863 l7 -6 7 6 6 7 -13 0 -13 0 6 -7z" />
    <path d="M1525 3840 l-6 -10 15 6 c18 7 21 14 7 14 -6 0 -13 -4 -16 -10z" />
    <path d="M1485 3799 c-4 -6 -5 -12 -2 -15 2 -3 7 2 10 11 7 17 1 20 -8 4z" />
    <path d="M1463 3745 c-3 -9 -3 -18 -1 -21 3 -3 8 4 11 16 6 23 -1 27 -10 5z" />
    <path d="M1760 3740 l0 -13 7 6 6 7 -6 7 -7 6 0 -13z" />
    <path d="M1461 3702 c-1 -15 26 -82 33 -82 3 0 -1 15 -8 33 -7 17 -16 39 -19
47 l-5 15 -1 -13z" />
    <path d="M1760 3690 l0 -13 7 6 6 7 -6 7 -7 6 0 -13z" />
    <path d="M1736 3633 l-7 -18 12 12 13 13 -6 5 -6 6 -6 -18z" />
    <path d="M1525 3589 c6 -9 75 -33 80 -27 2 2 -16 11 -40 19 l-45 16 5 -8z" />
    <path d="M1690 3590 l-15 -10 12 0 c6 0 15 5 18 10 8 12 4 12 -15 0z" />
    <path d="M1635 3570 l-20 -9 17 0 17 -1 6 10 c7 11 7 11 -20 0z" />
    <path d="M537 2183 l-5 -8 66 3 c116 5 130 9 35 10 l-92 2 -4 -7z" />
    <path d="M987 2183 l-5 -8 108 0 108 0 -5 8 -4 7 -99 0 -99 0 -4 -7z" />
    <path d="M1480 2184 c14 -2 48 -5 77 -6 l51 -3 -5 8 -4 7 -72 -1 c-40 -1 -61
-3 -47 -5z" />
    <path d="M1817 2183 l-5 -8 105 3 106 3 9 -13 10 -13 -5 15 -4 15 -106 3 -105
3 -5 -8z" />
    <path d="M2197 2183 l-5 -8 133 0 133 0 -5 8 -4 7 -124 0 -124 0 -4 -7z" />
    <path d="M2687 2183 l-5 -8 71 3 71 4 13 -18 13 -18 0 10 c0 6 -5 15 -12 22
l-12 12 -67 0 -68 0 -4 -7z" />
    <path d="M3103 2183 c15 -2 37 -2 50 0 l22 4 -50 0 -50 0 28 -4z" />
    <path d="M1390 2155 c-19 -22 -8 -25 13 -3 l17 18 -9 0 c-5 0 -14 -7 -21 -15z" />
    <path d="M2665 2149 c-4 -6 -5 -12 -2 -15 2 -3 7 2 10 11 7 17 1 20 -8 4z" />
    <path d="M2022 2104 l-13 -14 10 0 c10 0 25 19 20 25 -2 1 -10 -3 -17 -11z" />
    <path d="M1817 2099 l13 -13 5 6 6 6 -18 6 -18 7 12 -12z" />
    <path d="M2197 2099 l13 -13 5 6 6 6 -18 6 -18 7 12 -12z" />
    <path d="M2645 2099 c-4 -6 -5 -12 -2 -15 2 -3 7 2 10 11 7 17 1 20 -8 4z" />
    <path d="M630 2021 l0 -81 8 0 7 0 -3 75 -4 75 31 0 30 0 4 -67 3 -68 0 70 -1
70 -37 3 -38 3 0 -80z" />
    <path d="M1140 2020 l0 -80 8 0 7 0 0 80 0 80 -7 0 -8 0 0 -80z" />
    <path d="M2726 2053 l-7 -18 12 12 13 13 -6 5 -6 6 -6 -18z" />
    <path d="M3326 2027 l6 -18 6 6 6 5 -13 13 -12 12 7 -18z" />
    <path d="M3228 1985 l-3 -45 7 0 8 0 0 45 c0 25 -2 45 -4 45 -2 0 -6 -20 -8
-45z" />
    <path d="M983 1943 l7 -6 7 6 6 7 -13 0 -13 0 6 -7z" />
    <path d="M2790 1906 l0 -35 8 -5 7 -4 -3 39 c-5 48 -12 51 -12 5z" />
    <path d="M791 1903 l-11 -28 15 19 c8 11 15 23 15 28 0 15 -7 8 -19 -19z" />
    <path d="M3070 1870 c0 -5 5 -10 11 -10 l10 0 -6 10 c-3 6 -8 10 -11 10 -2 0
-4 -4 -4 -10z" />
    <path d="M537 1563 l-5 -8 46 4 46 3 13 -18 13 -18 0 10 c0 6 -5 15 -12 22
l-12 12 -42 0 -43 0 -4 -7z" />
    <path d="M760 1564 c8 -1 32 -4 52 -6 l37 -4 -5 8 -5 8 -47 -1 c-26 -1 -40 -3
-32 -5z" />
    <path d="M1133 1563 c20 -2 54 -2 75 0 l37 4 -75 0 -75 0 38 -4z" />
    <path d="M1487 1563 l-5 -8 66 3 c116 5 130 9 35 10 l-92 2 -4 -7z" />
    <path d="M1950 1564 c8 -1 32 -4 52 -6 l37 -4 -5 8 -5 8 -47 -1 c-26 -1 -40
-3 -32 -5z" />
    <path d="M2120 1564 c8 -1 32 -4 52 -6 l37 -4 -5 8 -5 8 -47 -1 c-26 -1 -40
-3 -32 -5z" />
    <path d="M2397 1563 l-5 -8 118 0 118 0 -5 8 -4 7 -109 0 -109 0 -4 -7z" />
    <path d="M2863 1563 c37 -2 96 -2 130 0 l62 3 -130 0 -130 0 68 -3z" />
    <path d="M3250 1564 c19 -2 69 -5 112 -6 l76 -3 -5 8 -4 7 -107 -2 c-59 -1
-91 -3 -72 -4z" />
    <path d="M3638 1563 c12 -2 30 -2 40 0 l17 5 -40 -1 -40 0 23 -4z" />
    <path d="M3797 1563 l-5 -8 48 0 48 0 -5 8 -4 7 -39 0 -39 0 -4 -7z" />
    <path d="M4180 1564 c14 -2 48 -5 77 -6 l51 -3 -5 8 -4 7 -72 -1 c-40 -1 -61
-3 -47 -5z" />
    <path d="M1080 1550 l0 -13 7 6 6 7 -6 7 -7 6 0 -13z" />
    <path d="M1705 1540 c3 -5 11 -10 16 -10 l10 0 -6 10 c-3 6 -11 10 -16 10
l-10 0 6 -10z" />
    <path d="M2782 1520 l0 -35 5 18 c2 9 2 25 0 35 l-5 17 0 -35z" />
    <path d="M725 1529 c-4 -6 -5 -12 -2 -15 2 -3 7 2 10 11 7 17 1 20 -8 4z" />
    <path d="M2186 1523 l-7 -18 12 12 13 13 -6 5 -6 6 -6 -18z" />
    <path d="M2085 1519 c-4 -6 -5 -12 -2 -15 2 -3 7 2 10 11 7 17 1 20 -8 4z" />
    <path d="M4075 1519 c-4 -6 -5 -12 -2 -15 2 -3 7 2 10 11 7 17 1 20 -8 4z" />
    <path d="M1065 1509 c-4 -6 -5 -12 -2 -15 2 -3 7 2 10 11 7 17 1 20 -8 4z" />
    <path d="M3736 1505 c4 -8 11 -15 16 -15 l10 0 -12 15 c-7 8 -14 15 -16 15 -2
0 -1 -7 2 -15z" />
    <path d="M1730 1500 l0 -13 7 6 6 7 -6 7 -7 6 0 -13z" />
    <path d="M1580 1455 l0 -35 8 0 7 0 0 35 0 35 -7 0 -8 0 0 -35z" />
    <path d="M3040 1480 l-15 -10 12 0 c6 0 15 5 18 10 8 12 4 12 -15 0z" />
    <path d="M3217 1479 l13 -13 5 6 6 6 -18 6 -18 7 12 -12z" />
    <path d="M3420 1480 l-15 -10 12 0 c6 0 15 5 18 10 8 12 4 12 -15 0z" />
    <path d="M4290 1480 l-15 -10 12 0 c6 0 15 5 18 10 8 12 4 12 -15 0z" />
    <path d="M2490 1469 l0 -10 10 6 c6 3 10 8 10 11 0 2 -4 4 -10 4 -5 0 -10 -5
-10 -11z" />
    <path d="M4170 1469 l0 -10 10 6 c6 3 10 8 10 11 0 2 -4 4 -10 4 -5 0 -10 -5
-10 -11z" />
    <path d="M1039 1444 c-5 -15 -8 -29 -5 -31 2 -2 8 10 14 26 13 38 5 41 -9 5z" />
    <path d="M2156 1455 l-5 -15 9 0 10 0 0 15 c0 8 -2 15 -4 15 -2 0 -6 -7 -10
-15z" />
    <path d="M1140 1450 l0 -13 7 6 6 7 -6 7 -7 6 0 -13z" />
    <path d="M2570 1446 c0 -2 7 -7 16 -10 l15 -6 -6 10 c-6 10 -25 14 -25 6z" />
    <path d="M1710 1421 c0 -5 7 -11 14 -14 l15 -6 -6 15 c-6 15 -23 19 -23 5z" />
    <path d="M4230 1400 l0 -13 7 6 6 7 -6 7 -7 6 0 -13z" />
    <path d="M4330 1400 l0 -13 7 6 6 7 -6 7 -7 6 0 -13z" />
    <path d="M727 1387 l-5 -14 14 0 14 0 0 14 0 13 -9 0 c-5 0 -11 -6 -14 -13z" />
    <path d="M2210 1323 l-5 -82 8 8 8 8 -3 74 -3 74 -5 -82z" />
    <path d="M3708 1321 l-3 -79 8 5 7 4 0 66 0 65 17 -13 16 -14 -12 23 c-6 12
-16 22 -21 22 l-8 0 -4 -79z" />
    <path d="M1021 1323 l-1 -72 8 -4 7 -5 -3 51 c-5 92 -9 104 -11 30z" />
    <path d="M650 1371 c0 -6 4 -13 10 -16 l10 -6 -6 15 c-7 18 -14 21 -14 7z" />
    <path d="M1760 1360 l0 -13 7 6 6 7 -6 7 -7 6 0 -13z" />
    <path d="M1581 1298 c1 -55 5 -50 11 15 l4 37 -8 0 -8 0 1 -52z" />
    <path d="M4170 1330 c0 -5 5 -10 11 -10 l10 0 -6 10 c-3 6 -8 10 -11 10 -2 0
-4 -4 -4 -10z" />
    <path d="M1295 1250 l-6 -10 10 0 c6 0 11 5 11 10 0 6 -2 10 -4 10 -3 0 -8 -4
-11 -10z" />
    <path d="M3210 1250 c0 -5 5 -10 11 -10 l10 0 -6 10 c-3 6 -8 10 -11 10 -2 0
-4 -4 -4 -10z" />
    <path d="M3610 1250 c0 -5 5 -10 11 -10 l10 0 -6 10 c-3 6 -8 10 -11 10 -2 0
-4 -4 -4 -10z" />
    <path d="M4117 1249 l13 -13 5 6 6 6 -18 6 -18 7 12 -12z" />
    <path d="M4325 1250 l-6 -10 10 0 c6 0 11 5 11 10 0 6 -2 10 -4 10 -3 0 -8 -4
-11 -10z" />
  </g>
  <g transform="translate(0.000000,500.000000) scale(0.100000,-0.100000)" fill="#ffbd52" stroke="none">
    <path d="M1470 3760 l0 -13 7 6 6 7 -6 7 -7 6 0 -13z" />
    <path d="M1470 3670 l0 -13 7 6 6 7 -6 7 -7 6 0 -13z" />
    <path d="M1563 3573 l7 -6 7 6 6 7 -13 0 -13 0 6 -7z" />
    <path d="M1653 3573 l7 -6 7 6 6 7 -13 0 -13 0 6 -7z" />
    <path d="M727 2179 l13 -13 5 6 6 6 -18 6 -18 7 12 -12z" />
    <path d="M974 2168 l-7 -11 11 7 c12 7 16 16 8 16 -3 0 -8 -5 -12 -12z" />
    <path d="M1195 2170 c3 -5 8 -10 11 -10 3 0 2 5 -1 10 -3 6 -8 10 -11 10 -3 0
-2 -4 1 -10z" />
    <path d="M1433 2173 l7 -6 7 6 6 7 -13 0 -13 0 6 -7z" />
    <path d="M1605 2170 c3 -5 8 -10 11 -10 3 0 2 5 -1 10 -3 6 -8 10 -11 10 -3 0
-2 -4 1 -10z" />
    <path d="M2455 2170 c3 -5 8 -10 11 -10 3 0 2 5 -1 10 -3 6 -8 10 -11 10 -3 0
-2 -4 1 -10z" />
    <path d="M534 2020 l0 -155 3 78 c2 42 2 112 0 155 l-3 77 0 -155z" />
    <path d="M2670 2160 l0 -13 7 6 6 7 -6 7 -7 6 0 -13z" />
    <path d="M790 2141 c0 -6 4 -13 10 -16 l10 -6 -6 15 c-7 18 -14 21 -14 7z" />
    <path d="M976 2105 c4 -8 11 -15 16 -15 l10 0 -12 15 c-7 8 -14 15 -16 15 -2
0 -1 -7 2 -15z" />
    <path d="M2450 2105 l-12 -15 10 0 c5 0 12 7 16 15 3 8 4 15 2 15 -2 0 -9 -7
-16 -15z" />
    <path d="M2860 2101 c0 -6 4 -13 10 -16 l10 -6 -6 15 c-7 18 -14 21 -14 7z" />
    <path d="M695 2090 c3 -5 8 -10 11 -10 2 0 4 5 4 10 0 6 -5 10 -11 10 l-10 0
6 -10z" />
    <path d="M2636 2073 l-7 -18 12 12 13 13 -6 5 -6 6 -6 -18z" />
    <path d="M2720 2040 l0 -13 7 6 6 7 -6 7 -7 6 0 -13z" />
    <path d="M2780 2030 c0 -5 5 -10 11 -10 l10 0 -6 10 c-3 6 -8 10 -11 10 -2 0
-4 -4 -4 -10z" />
    <path d="M1865 1950 l-6 -10 10 0 c6 0 11 5 11 10 0 6 -2 10 -4 10 -3 0 -8 -4
-11 -10z" />
    <path d="M1380 1900 c0 -5 10 -15 23 -21 l22 -12 -19 22 c-21 23 -26 26 -26
11z" />
    <path d="M2370 1870 l0 -13 7 6 6 7 -6 7 -7 6 0 -13z" />
    <path d="M2705 1870 l-6 -10 10 0 c6 0 11 5 11 10 0 6 -2 10 -4 10 -3 0 -8 -4
-11 -10z" />
    <path d="M2885 1870 l-6 -10 10 0 c6 0 11 5 11 10 0 6 -2 10 -4 10 -3 0 -8 -4
-11 -10z" />
    <path d="M3075 1870 c3 -5 8 -10 11 -10 3 0 2 5 -1 10 -3 6 -8 10 -11 10 -3 0
-2 -4 1 -10z" />
    <path d="M713 1863 l7 -6 7 6 6 7 -13 0 -13 0 6 -7z" />
    <path d="M1458 1863 l13 -5 6 6 6 6 -19 -1 -19 -1 13 -5z" />
    <path d="M1704 1541 c20 -22 26 -25 26 -13 0 4 -10 13 -22 21 l-23 14 19 -22z" />
    <path d="M2096 1543 l-7 -18 12 12 13 13 -6 5 -6 6 -6 -18z" />
    <path d="M2625 1550 c3 -5 8 -10 11 -10 3 0 2 5 -1 10 -3 6 -8 10 -11 10 -3 0
-2 -4 1 -10z" />
    <path d="M3884 1400 l0 -165 3 83 c2 45 2 119 0 165 l-3 82 0 -165z" />
    <path d="M534 1400 l0 -155 3 78 c2 42 2 112 0 155 l-3 77 0 -155z" />
    <path d="M1484 1400 l0 -155 3 78 c2 42 2 112 0 155 l-3 77 0 -155z" />
    <path d="M2394 1400 l0 -155 3 78 c2 42 2 112 0 155 l-3 77 0 -155z" />
    <path d="M1070 1520 l0 -13 7 6 6 7 -6 7 -7 6 0 -13z" />
    <path d="M660 1505 c0 -6 7 -18 15 -29 l14 -18 10 7 c6 3 11 12 11 18 l0 12
-9 -14 -8 -13 -17 23 c-9 13 -16 19 -16 14z" />
    <path d="M1260 1501 c0 -6 4 -13 10 -16 l10 -6 -6 15 c-7 18 -14 21 -14 7z" />
    <path d="M2175 1499 c-4 -6 -5 -12 -2 -15 2 -3 7 2 10 11 7 17 1 20 -8 4z" />
    <path d="M4070 1500 l0 -13 7 6 6 7 -6 7 -7 6 0 -13z" />
    <path d="M3745 1490 c3 -5 8 -10 11 -10 2 0 4 5 4 10 0 6 -5 10 -11 10 l-10 0
6 -10z" />
    <path d="M1615 1480 c3 -5 11 -10 16 -10 l10 0 -6 10 c-3 6 -11 10 -16 10
l-10 0 6 -10z" />
    <path d="M1145 1469 c-4 -6 -5 -12 -2 -15 2 -3 7 2 10 11 7 17 1 20 -8 4z" />
    <path d="M4173 1473 l7 -6 7 6 6 7 -13 0 -13 0 6 -7z" />
    <path d="M1040 1440 l0 -13 7 6 6 7 -6 7 -7 6 0 -13z" />
    <path d="M2150 1445 c0 -3 2 -5 5 -5 3 0 5 2 5 5 0 3 -2 5 -5 5 -3 0 -5 -2 -5
-5z" />
    <path d="M1717 1433 c-4 -3 -7 -11 -7 -17 l0 -10 12 12 c6 6 9 14 7 17 -3 3
-9 2 -12 -2z" />
    <path d="M630 1415 c0 -5 5 -17 10 -25 l10 -15 0 10 c0 6 -5 17 -10 25 l-10
15 0 -10z" />
    <path d="M740 1410 l0 -13 7 6 6 7 -6 7 -7 6 0 -13z" />
    <path d="M1030 1410 l0 -13 7 6 6 7 -6 7 -7 6 0 -13z" />
    <path d="M2200 1411 c0 -6 4 -13 10 -16 l10 -6 -6 15 c-7 18 -14 21 -14 7z" />
    <path d="M3710 1402 c0 -12 19 -26 26 -19 2 2 -2 10 -11 17 l-15 12 0 -10z" />
    <path d="M678 1353 c6 -2 18 -2 25 0 l12 5 -25 0 -25 0 13 -5z" />
    <path d="M1656 1337 l6 -18 6 6 6 5 -13 13 -12 12 7 -18z" />
    <path d="M4173 1323 l7 -6 7 6 6 7 -13 0 -13 0 6 -7z" />
    <path d="M840 1250 l0 -13 7 6 6 7 -6 7 -7 6 0 -13z" />
    <path d="M1294 1248 l-7 -11 11 7 c12 7 16 16 8 16 -3 0 -8 -5 -12 -12z" />
    <path d="M1660 1250 c0 -5 5 -10 11 -10 l10 0 -6 10 c-3 6 -8 10 -11 10 -2 0
-4 -4 -4 -10z" />
    <path d="M2025 1250 l-6 -10 10 0 c6 0 11 5 11 10 0 6 -2 10 -4 10 -3 0 -8 -4
-11 -10z" />
    <path d="M3215 1250 c3 -5 8 -10 11 -10 3 0 2 5 -1 10 -3 6 -8 10 -11 10 -3 0
-2 -4 1 -10z" />
    <path d="M3425 1250 l-6 -10 10 0 c6 0 11 5 11 10 0 6 -2 10 -4 10 -3 0 -8 -4
-11 -10z" />
    <path d="M3615 1250 c3 -5 8 -10 11 -10 3 0 2 5 -1 10 -3 6 -8 10 -11 10 -3 0
-2 -4 1 -10z" />
    <path d="M4324 1248 l-7 -11 11 7 c12 7 16 16 8 16 -3 0 -8 -5 -12 -12z" />
    <path d="M4153 1243 l7 -6 7 6 6 7 -13 0 -13 0 6 -7z" />
  </g>
  <g transform="translate(0.000000,500.000000) scale(0.100000,-0.100000)" fill="#ffe4b9" stroke="none">
    <path d="M1545 3850 l-6 -10 15 6 c18 7 21 14 7 14 -6 0 -13 -4 -16 -10z" />
    <path d="M1661 3856 c2 -2 15 -9 29 -15 l25 -12 -19 15 c-16 13 -49 24 -35 12z" />
    <path d="M1741 3790 c14 -31 19 -36 19 -24 0 6 -7 19 -16 30 l-15 19 12 -25z" />
    <path d="M1475 3779 c-4 -6 -5 -12 -2 -15 2 -3 7 2 10 11 7 17 1 20 -8 4z" />
    <path d="M1746 3653 l-7 -18 12 12 13 13 -6 5 -6 6 -6 -18z" />
    <path d="M1670 3580 l-15 -10 12 0 c6 0 15 5 18 10 8 12 4 12 -15 0z" />
    <path d="M3166 2177 l6 -18 6 6 6 5 -13 13 -12 12 7 -18z" />
    <path d="M1415 2170 l-6 -10 15 6 c18 7 21 14 7 14 -6 0 -13 -4 -16 -10z" />
    <path d="M800 2120 l0 -13 7 6 6 7 -6 7 -7 6 0 -13z" />
    <path d="M1371 2114 l1 -19 5 13 5 13 -6 6 -6 6 1 -19z" />
    <path d="M993 2093 c9 -2 25 -2 35 0 l17 5 -35 0 -35 0 18 -5z" />
    <path d="M1153 2093 c9 -2 25 -2 35 0 l17 5 -35 0 -35 0 18 -5z" />
    <path d="M1518 2093 c17 -2 47 -2 65 0 l32 4 -65 0 -65 0 33 -4z" />
    <path d="M1830 2096 c0 -2 11 -6 25 -8 l25 -5 0 8 0 9 -25 0 c-14 0 -25 -2
-25 -4z" />
    <path d="M1970 2091 l0 -8 25 5 c14 2 25 6 25 8 0 2 -11 4 -25 4 l-25 0 0 -9z" />
    <path d="M2210 2096 c0 -2 16 -6 35 -8 l35 -4 0 8 0 8 -35 0 c-19 0 -35 -2
-35 -4z" />
    <path d="M2398 2093 c12 -2 32 -2 45 0 l22 4 -45 0 -45 0 23 -4z" />
    <path d="M2740 2090 l0 -9 15 5 c8 4 15 8 15 10 0 2 -7 4 -15 4 l-15 0 0 -10z" />
    <path d="M2870 2080 l0 -13 7 6 6 7 -6 7 -7 6 0 -13z" />
    <path d="M2630 2060 l0 -13 7 6 6 7 -6 7 -7 6 0 -13z" />
    <path d="M2620 2030 l0 -13 7 6 6 7 -6 7 -7 6 0 -13z" />
    <path d="M2720 2030 c0 -5 5 -10 11 -10 l10 0 -6 10 c-3 6 -8 10 -11 10 -2 0
-4 -4 -4 -10z" />
    <path d="M2891 2024 l1 -19 5 13 5 13 -6 6 -6 6 1 -19z" />
    <path d="M3263 2033 c15 -2 37 -2 50 0 l22 4 -50 0 -50 0 28 -4z" />
    <path d="M3328 1940 l-3 -80 8 0 7 0 0 80 c0 103 -8 103 -12 0z" />
    <path d="M1180 1946 c0 -2 7 -7 16 -10 l15 -6 -6 10 c-6 10 -25 14 -25 6z" />
    <path d="M2026 1937 l6 -18 6 6 6 5 -13 13 -12 12 7 -18z" />
    <path d="M1370 1930 l0 -13 7 6 6 7 -6 7 -7 6 0 -13z" />
    <path d="M2790 1935 c0 -3 2 -5 5 -5 3 0 5 2 5 5 0 3 -2 5 -5 5 -3 0 -5 -2 -5
-5z" />
    <path d="M774 1878 l-7 -11 11 7 c12 7 16 16 8 16 -3 0 -8 -5 -12 -12z" />
    <path d="M2710 1870 l0 -13 7 6 6 7 -6 7 -7 6 0 -13z" />
    <path d="M1433 1863 l7 -6 7 6 6 7 -13 0 -13 0 6 -7z" />
    <path d="M2104 1558 l-7 -11 11 7 c7 4 12 9 12 12 0 8 -9 4 -16 -8z" />
    <path d="M1932 1403 l-2 -163 8 0 7 0 -3 107 c-1 60 -4 133 -5 163 l-3 55 -2
-162z" />
    <path d="M2200 1550 l0 -13 7 6 6 7 -6 7 -7 6 0 -13z" />
    <path d="M646 1527 l6 -18 6 6 6 5 -13 13 -12 12 7 -18z" />
    <path d="M1250 1530 l0 -13 7 6 6 7 -6 7 -7 6 0 -13z" />
    <path d="M2090 1530 l0 -13 7 6 6 7 -6 7 -7 6 0 -13z" />
    <path d="M3725 1520 c3 -5 8 -10 11 -10 3 0 2 5 -1 10 -3 6 -8 10 -11 10 -3 0
-2 -4 1 -10z" />
    <path d="M715 1509 c-4 -6 -5 -12 -2 -15 2 -3 7 2 10 11 7 17 1 20 -8 4z" />
    <path d="M1730 1490 l0 -13 7 6 6 7 -6 7 -7 6 0 -13z" />
    <path d="M1270 1480 l0 -13 7 6 6 7 -6 7 -7 6 0 -13z" />
    <path d="M1163 1469 l17 -10 0 -16 0 -16 6 6 6 5 -7 21 -6 21 -17 0 -17 -1 18
-10z" />
    <path d="M2808 1473 c12 -2 32 -2 45 0 l22 4 -45 0 -45 0 23 -4z" />
    <path d="M2970 1472 l0 -8 35 4 c19 2 35 6 35 8 0 2 -16 4 -35 4 l-35 0 0 -8z" />
    <path d="M3230 1476 c0 -2 11 -6 25 -8 l25 -5 0 8 0 9 -25 0 c-14 0 -25 -2
-25 -4z" />
    <path d="M3370 1471 l0 -8 25 5 c14 2 25 6 25 8 0 2 -11 4 -25 4 l-25 0 0 -9z" />
    <path d="M4208 1473 c18 -2 45 -2 60 0 l27 4 -60 0 -60 0 33 -4z" />
    <path d="M1631 1454 l1 -19 5 13 5 13 -6 6 -6 6 1 -19z" />
    <path d="M1731 1454 l1 -19 5 13 5 13 -6 6 -6 6 1 -19z" />
    <path d="M2030 1450 l0 -10 15 0 c8 0 15 2 15 4 0 2 -7 6 -15 10 l-15 5 0 -9z" />
    <path d="M2490 1448 l0 -8 48 1 c52 1 48 6 -10 11 l-38 4 0 -8z" />
    <path d="M2590 1430 l0 -13 7 6 6 7 -6 7 -7 6 0 -13z" />
    <path d="M1130 1415 l0 -15 10 0 9 0 -5 15 c-4 8 -8 15 -10 15 -2 0 -4 -7 -4
-15z" />
    <path d="M1301 1394 l1 -19 5 13 5 13 -6 6 -6 6 1 -19z" />
    <path d="M3715 1390 c3 -5 8 -10 11 -10 2 0 4 5 4 10 0 6 -5 10 -11 10 l-10 0
6 -10z" />
    <path d="M645 1380 c3 -5 8 -10 11 -10 3 0 2 5 -1 10 -3 6 -8 10 -11 10 -3 0
-2 -4 1 -10z" />
    <path d="M2586 1373 l-7 -18 12 12 13 13 -6 5 -6 6 -6 -18z" />
    <path d="M710 1360 l-15 -10 12 0 c6 0 15 5 18 10 8 12 4 12 -15 0z" />
    <path d="M1758 1300 l-3 -60 8 0 7 0 0 60 c0 77 -7 77 -12 0z" />
    <path d="M2105 1350 c3 -5 8 -10 11 -10 3 0 2 5 -1 10 -3 6 -8 10 -11 10 -3 0
-2 -4 1 -10z" />
    <path d="M3775 1320 c3 -5 8 -10 11 -10 3 0 2 5 -1 10 -3 6 -8 10 -11 10 -3 0
-2 -4 1 -10z" />
    <path d="M4097 1259 l13 -13 5 6 6 6 -18 6 -18 7 12 -12z" />
    <path d="M1660 1250 l0 -13 7 6 6 7 -6 7 -7 6 0 -13z" />
    <path d="M2030 1250 l0 -13 7 6 6 7 -6 7 -7 6 0 -13z" />
    <path d="M3430 1250 l0 -13 7 6 6 7 -6 7 -7 6 0 -13z" />
  </g>
  <g transform="translate(0.000000,500.000000) scale(0.100000,-0.100000)" fill="#ffd186" stroke="none">
    <path d="M1504 3818 l-19 -23 23 19 c21 18 27 26 19 26 -2 0 -12 -10 -23 -22z" />
    <path d="M1715 3820 c10 -11 20 -20 23 -20 3 0 -3 9 -13 20 -10 11 -20 20 -23
20 -3 0 3 -9 13 -20z" />
    <path d="M1470 3765 c0 -3 2 -5 5 -5 3 0 5 2 5 5 0 3 -2 5 -5 5 -3 0 -5 -2 -5
-5z" />
    <path d="M1470 3665 c0 -3 2 -5 5 -5 3 0 5 2 5 5 0 3 -2 5 -5 5 -3 0 -5 -2 -5
-5z" />
    <path d="M1505 3610 c10 -11 20 -20 23 -20 3 0 -3 9 -13 20 -10 11 -20 20 -23
20 -3 0 3 -9 13 -20z" />
    <path d="M1714 3608 l-19 -23 23 19 c21 18 27 26 19 26 -2 0 -12 -10 -23 -22z" />
    <path d="M1560 3575 c0 -3 2 -5 5 -5 3 0 5 2 5 5 0 3 -2 5 -5 5 -3 0 -5 -2 -5
-5z" />
    <path d="M1660 3575 c0 -3 2 -5 5 -5 3 0 5 2 5 5 0 3 -2 5 -5 5 -3 0 -5 -2 -5
-5z" />
    <path d="M1430 2175 c0 -3 2 -5 5 -5 3 0 5 2 5 5 0 3 -2 5 -5 5 -3 0 -5 -2 -5
-5z" />
    <path d="M1810 2170 l0 -13 7 6 6 7 -6 7 -7 6 0 -13z" />
    <path d="M3074 2025 l0 -160 3 83 c2 46 2 118 0 160 l-3 77 0 -160z" />
    <path d="M770 2166 c0 -2 8 -10 18 -17 l17 -14 -14 18 c-13 16 -21 21 -21 13z" />
    <path d="M2840 2155 c0 -3 2 -5 5 -5 3 0 5 2 5 5 0 3 -2 5 -5 5 -3 0 -5 -2 -5
-5z" />
    <path d="M2660 2135 c0 -3 2 -5 5 -5 3 0 5 2 5 5 0 3 -2 5 -5 5 -3 0 -5 -2 -5
-5z" />
    <path d="M800 2110 l0 -13 7 6 6 7 -6 7 -7 6 0 -13z" />
    <path d="M1374 2025 l-1 -90 4 42 c2 23 2 64 0 90 l-3 48 0 -90z" />
    <path d="M1970 2090 l0 -13 7 6 6 7 -6 7 -7 6 0 -13z" />
    <path d="M2270 2090 l0 -13 7 6 6 7 -6 7 -7 6 0 -13z" />
    <path d="M2640 2085 c0 -3 2 -5 5 -5 3 0 5 2 5 5 0 3 -2 5 -5 5 -3 0 -5 -2 -5
-5z" />
    <path d="M2725 2030 c3 -5 8 -10 11 -10 3 0 2 5 -1 10 -3 6 -8 10 -11 10 -3 0
-2 -4 1 -10z" />
    <path d="M2620 2020 l0 -13 7 6 6 7 -6 7 -7 6 0 -13z" />
    <path d="M690 1950 l-15 -10 12 0 c6 0 15 5 18 10 8 12 4 12 -15 0z" />
    <path d="M633 1943 l7 -6 7 6 6 7 -13 0 -13 0 6 -7z" />
    <path d="M1143 1943 l7 -6 7 6 6 7 -13 0 -13 0 6 -7z" />
    <path d="M3223 1943 l7 -6 7 6 6 7 -13 0 -13 0 6 -7z" />
    <path d="M1380 1900 l0 -13 7 6 6 7 -6 7 -7 6 0 -13z" />
    <path d="M1410 1875 c0 -3 2 -5 5 -5 3 0 5 2 5 5 0 3 -2 5 -5 5 -3 0 -5 -2 -5
-5z" />
    <path d="M728 1863 l13 -5 6 6 6 6 -19 -1 -19 -1 13 -5z" />
    <path d="M980 1865 c0 -3 2 -5 5 -5 3 0 5 2 5 5 0 3 -2 5 -5 5 -3 0 -5 -2 -5
-5z" />
    <path d="M1443 1863 l7 -6 7 6 6 7 -13 0 -13 0 6 -7z" />
    <path d="M2620 1865 c0 -3 2 -5 5 -5 3 0 5 2 5 5 0 3 -2 5 -5 5 -3 0 -5 -2 -5
-5z" />
    <path d="M3053 1520 l0 -45 4 23 c2 12 2 32 0 45 l-4 22 0 -45z" />
    <path d="M3213 1520 l0 -45 4 23 c2 12 2 32 0 45 l-4 22 0 -45z" />
    <path d="M3431 1544 l1 -19 5 13 5 13 -6 6 -6 6 1 -19z" />
    <path d="M3614 1405 l0 -160 3 83 c2 46 2 118 0 160 l-3 77 0 -160z" />
    <path d="M4099 1543 l-14 -18 18 14 c9 7 17 15 17 17 0 8 -8 3 -21 -13z" />
    <path d="M4301 1544 l1 -19 5 13 5 13 -6 6 -6 6 1 -19z" />
    <path d="M3700 1546 c0 -2 8 -10 18 -17 l17 -14 -14 18 c-13 16 -21 21 -21 13z" />
    <path d="M1720 1530 l0 -13 7 6 6 7 -6 7 -7 6 0 -13z" />
    <path d="M3431 1494 l1 -19 5 13 5 13 -6 6 -6 6 1 -19z" />
    <path d="M4070 1505 c0 -3 2 -5 5 -5 3 0 5 2 5 5 0 3 -2 5 -5 5 -3 0 -5 -2 -5
-5z" />
    <path d="M4301 1494 l1 -19 5 13 5 13 -6 6 -6 6 1 -19z" />
    <path d="M1150 1475 c0 -3 2 -5 5 -5 3 0 5 2 5 5 0 3 -2 5 -5 5 -3 0 -5 -2 -5
-5z" />
    <path d="M1170 1471 c0 -6 4 -13 10 -16 l10 -6 -6 15 c-7 18 -14 21 -14 7z" />
    <path d="M2164 1468 l-7 -11 11 7 c7 4 12 9 12 12 0 8 -9 4 -16 -8z" />
    <path d="M2970 1470 l0 -13 7 6 6 7 -6 7 -7 6 0 -13z" />
    <path d="M3775 1460 c3 -5 8 -10 11 -10 3 0 2 5 -1 10 -3 6 -8 10 -11 10 -3 0
-2 -4 1 -10z" />
    <path d="M1140 1455 c0 -3 2 -5 5 -5 3 0 5 2 5 5 0 3 -2 5 -5 5 -3 0 -5 -2 -5
-5z" />
    <path d="M1040 1445 c0 -3 2 -5 5 -5 3 0 5 2 5 5 0 3 -2 5 -5 5 -3 0 -5 -2 -5
-5z" />
    <path d="M1622 1434 l-13 -14 10 0 c10 0 25 19 20 25 -2 1 -10 -3 -17 -11z" />
    <path d="M1130 1425 c0 -3 2 -5 5 -5 3 0 5 2 5 5 0 3 -2 5 -5 5 -3 0 -5 -2 -5
-5z" />
    <path d="M1714 1418 l-7 -11 11 7 c12 7 16 16 8 16 -3 0 -8 -5 -12 -12z" />
    <path d="M1030 1415 c0 -3 2 -5 5 -5 3 0 5 2 5 5 0 3 -2 5 -5 5 -3 0 -5 -2 -5
-5z" />
    <path d="M1745 1390 c3 -5 8 -10 11 -10 3 0 2 5 -1 10 -3 6 -8 10 -11 10 -3 0
-2 -4 1 -10z" />
    <path d="M4333 1325 l0 -80 4 43 c2 23 2 59 0 80 l-4 37 0 -80z" />
    <path d="M2490 1362 l0 -8 38 4 c64 6 69 10 15 11 l-53 1 0 -8z" />
    <path d="M3740 1366 c0 -2 8 -10 18 -17 l17 -14 -14 18 c-13 16 -21 21 -21 13z" />
    <path d="M1583 1343 l7 -6 7 6 6 7 -13 0 -13 0 6 -7z" />
    <path d="M1638 1343 l13 -5 6 6 6 6 -19 -1 -19 -1 13 -5z" />
    <path d="M3426 1317 l6 -18 6 6 6 5 -13 13 -12 12 7 -18z" />
    <path d="M1200 1310 l0 -13 7 6 6 7 -6 7 -7 6 0 -13z" />
    <path d="M3213 1285 l0 -40 4 23 c2 12 2 30 0 40 l-5 17 1 -40z" />
    <path d="M4085 1270 c3 -5 8 -10 11 -10 3 0 2 5 -1 10 -3 6 -8 10 -11 10 -3 0
-2 -4 1 -10z" />
    <path d="M3430 1260 l0 -13 7 6 6 7 -6 7 -7 6 0 -13z" />
    <path d="M620 1245 c0 -3 2 -5 5 -5 3 0 5 2 5 5 0 3 -2 5 -5 5 -3 0 -5 -2 -5
-5z" />
    <path d="M2870 1245 c0 -3 2 -5 5 -5 3 0 5 2 5 5 0 3 -2 5 -5 5 -3 0 -5 -2 -5
-5z" />
    <path d="M3790 1245 c0 -3 2 -5 5 -5 3 0 5 2 5 5 0 3 -2 5 -5 5 -3 0 -5 -2 -5
-5z" />
  </g>
  <g transform="translate(0.000000,500.000000) scale(0.100000,-0.100000)" fill="#ffd897" stroke="none">
    <path d="M1520 3835 c0 -3 2 -5 5 -5 3 0 5 2 5 5 0 3 -2 5 -5 5 -3 0 -5 -2 -5
-5z" />
    <path d="M1490 3805 c0 -3 2 -5 5 -5 3 0 5 2 5 5 0 3 -2 5 -5 5 -3 0 -5 -2 -5
-5z" />
    <path d="M1730 3625 c0 -3 2 -5 5 -5 3 0 5 2 5 5 0 3 -2 5 -5 5 -3 0 -5 -2 -5
-5z" />
    <path d="M1700 3595 c0 -3 2 -5 5 -5 3 0 5 2 5 5 0 3 -2 5 -5 5 -3 0 -5 -2 -5
-5z" />
    <path d="M2190 2170 l0 -13 7 6 6 7 -6 7 -7 6 0 -13z" />
    <path d="M2674 2168 l-7 -11 11 7 c7 4 12 9 12 12 0 8 -9 4 -16 -8z" />
    <path d="M3172 2058 l-2 -118 8 0 7 0 -3 82 c-4 143 -9 157 -10 36z" />
    <path d="M2190 2110 l0 -13 7 6 6 7 -6 7 -7 6 0 -13z" />
    <path d="M2860 2110 l0 -13 7 6 6 7 -6 7 -7 6 0 -13z" />
    <path d="M1370 2105 c0 -3 2 -5 5 -5 3 0 5 2 5 5 0 3 -2 5 -5 5 -3 0 -5 -2 -5
-5z" />
    <path d="M1140 2095 c0 -3 2 -5 5 -5 3 0 5 2 5 5 0 3 -2 5 -5 5 -3 0 -5 -2 -5
-5z" />
    <path d="M1473 2020 l0 -75 4 38 c2 20 2 54 0 75 l-4 37 0 -75z" />
    <path d="M2274 1980 l0 -115 3 58 c2 31 2 83 0 115 l-3 57 0 -115z" />
    <path d="M2730 2070 l0 -13 7 6 6 7 -6 7 -7 6 0 -13z" />
    <path d="M2781 2044 l1 -19 5 13 5 13 -6 6 -6 6 1 -19z" />
    <path d="M2890 2010 l0 -13 7 6 6 7 -6 7 -7 6 0 -13z" />
    <path d="M700 1955 c0 -3 2 -5 5 -5 3 0 5 2 5 5 0 3 -2 5 -5 5 -3 0 -5 -2 -5
-5z" />
    <path d="M1843 1953 l-33 -4 0 -8 0 -8 30 5 c17 2 33 8 36 13 3 5 4 8 2 7 -2
0 -18 -3 -35 -5z" />
    <path d="M1970 1948 l0 -8 30 0 c17 0 30 2 30 4 0 2 -13 6 -30 8 l-30 5 0 -9z" />
    <path d="M1003 1943 c9 -2 23 -2 30 0 l12 5 -30 0 -30 0 18 -5z" />
    <path d="M1158 1943 c6 -2 18 -2 25 0 l12 5 -25 0 -25 0 13 -5z" />
    <path d="M1370 1940 l0 -13 7 6 6 7 -6 7 -7 6 0 -13z" />
    <path d="M800 1930 l0 -13 7 6 6 7 -6 7 -7 6 0 -13z" />
    <path d="M2370 1865 c0 -3 2 -5 5 -5 3 0 5 2 5 5 0 3 -2 5 -5 5 -3 0 -5 -2 -5
-5z" />
    <path d="M625 1560 c3 -5 8 -10 11 -10 3 0 2 5 -1 10 -3 6 -8 10 -11 10 -3 0
-2 -4 1 -10z" />
    <path d="M739 1553 l-14 -18 18 14 c9 7 17 15 17 17 0 8 -8 3 -21 -13z" />
    <path d="M2030 1550 l0 -13 7 6 6 7 -6 7 -7 6 0 -13z" />
    <path d="M3430 1555 c0 -3 2 -5 5 -5 3 0 5 2 5 5 0 3 -2 5 -5 5 -3 0 -5 -2 -5
-5z" />
    <path d="M4118 1553 l13 -5 6 6 6 6 -19 -1 -19 -1 13 -5z" />
    <path d="M4300 1555 c0 -3 2 -5 5 -5 3 0 5 2 5 5 0 3 -2 5 -5 5 -3 0 -5 -2 -5
-5z" />
    <path d="M1070 1530 l0 -13 7 6 6 7 -6 7 -7 6 0 -13z" />
    <path d="M3720 1525 c0 -3 2 -5 5 -5 3 0 5 2 5 5 0 3 -2 5 -5 5 -3 0 -5 -2 -5
-5z" />
    <path d="M1260 1510 l0 -13 7 6 6 7 -6 7 -7 6 0 -13z" />
    <path d="M2070 1490 l0 -13 7 6 6 7 -6 7 -7 6 0 -13z" />
    <path d="M675 1480 c3 -5 8 -10 11 -10 3 0 2 5 -1 10 -3 6 -8 10 -11 10 -3 0
-2 -4 1 -10z" />
    <path d="M2170 1480 l0 -13 7 6 6 7 -6 7 -7 6 0 -13z" />
    <path d="M3430 1485 c0 -3 2 -5 5 -5 3 0 5 2 5 5 0 3 -2 5 -5 5 -3 0 -5 -2 -5
-5z" />
    <path d="M4300 1485 c0 -3 2 -5 5 -5 3 0 5 2 5 5 0 3 -2 5 -5 5 -3 0 -5 -2 -5
-5z" />
    <path d="M3270 1405 l0 -75 -24 0 c-14 0 -27 -4 -30 -8 l-5 -8 35 4 34 4 0 79
c0 43 -2 79 -5 79 -3 0 -5 -34 -5 -75z" />
    <path d="M4180 1475 c0 -3 2 -5 5 -5 3 0 5 2 5 5 0 3 -2 5 -5 5 -3 0 -5 -2 -5
-5z" />
    <path d="M2054 1448 l-7 -11 11 7 c7 4 12 9 12 12 0 8 -9 4 -16 -8z" />
    <path d="M1291 1424 l1 -19 5 13 5 13 -6 6 -6 6 1 -19z" />
    <path d="M2185 1430 c3 -5 8 -10 11 -10 3 0 2 5 -1 10 -3 6 -8 10 -11 10 -3 0
-2 -4 1 -10z" />
    <path d="M1583 1423 l7 -6 7 6 6 7 -13 0 -13 0 6 -7z" />
    <path d="M4228 1360 l-4 -40 8 0 8 0 0 40 c0 22 -2 40 -4 40 -2 0 -6 -18 -8
-40z" />
    <path d="M1303 1320 l0 -75 4 38 c2 20 2 54 0 75 l-4 37 0 -75z" />
    <path d="M2580 1365 c0 -3 2 -5 5 -5 3 0 5 2 5 5 0 3 -2 5 -5 5 -3 0 -5 -2 -5
-5z" />
    <path d="M1603 1343 c9 -2 23 -2 30 0 l12 5 -30 0 -30 0 18 -5z" />
    <path d="M2490 1330 c0 -5 5 -10 11 -10 l10 0 -6 10 c-3 6 -8 10 -11 10 -2 0
-4 -4 -4 -10z" />
    <path d="M3370 1328 l0 -8 30 0 c17 0 30 2 30 4 0 2 -13 6 -30 8 l-30 5 0 -9z" />
    <path d="M4183 1323 l7 -6 7 6 6 7 -13 0 -13 0 6 -7z" />
    <path d="M1120 1310 l0 -13 7 6 6 7 -6 7 -7 6 0 -13z" />
    <path d="M1200 1275 l0 -35 8 0 8 0 -4 35 c-2 19 -6 35 -8 35 -2 0 -4 -16 -4
-35z" />
    <path d="M4070 1296 c0 -8 4 -17 9 -20 l9 -6 -5 20 c-6 23 -13 26 -13 6z" />
    <path d="M3210 1255 c0 -3 2 -5 5 -5 3 0 5 2 5 5 0 3 -2 5 -5 5 -3 0 -5 -2 -5
-5z" />
    <path d="M840 1245 c0 -3 2 -5 5 -5 3 0 5 2 5 5 0 3 -2 5 -5 5 -3 0 -5 -2 -5
-5z" />
    <path d="M3880 1245 c0 -3 2 -5 5 -5 3 0 5 2 5 5 0 3 -2 5 -5 5 -3 0 -5 -2 -5
-5z" />
    <path d="M4133 1243 l7 -6 7 6 6 7 -13 0 -13 0 6 -7z" />
  </g>
  <g transform="translate(0.000000,500.000000) scale(0.100000,-0.100000)" fill="#8d5ca4" stroke="none">
    <path d="M600 3860 l-15 -10 12 0 c6 0 15 5 18 10 8 12 4 12 -15 0z" />
    <path d="M560 3840 l-15 -10 12 0 c6 0 15 5 18 10 8 12 4 12 -15 0z" />
    <path d="M770 3801 c0 -6 4 -13 10 -16 l10 -6 -6 15 c-7 18 -14 21 -14 7z" />
    <path d="M506 3773 l-7 -18 12 12 13 13 -6 5 -6 6 -6 -18z" />
    <path d="M790 3750 l0 -13 7 6 6 7 -6 7 -7 6 0 -13z" />
    <path d="M788 3675 c-3 -11 -9 -29 -13 -40 l-6 -20 16 28 16 28 -4 12 -3 11
-6 -19z" />
    <path d="M526 3627 l6 -18 6 6 6 5 -13 13 -12 12 7 -18z" />
    <path d="M565 3590 c3 -5 8 -10 11 -10 3 0 2 5 -1 10 -3 6 -8 10 -11 10 -3 0
-2 -4 1 -10z" />
    <path d="M725 3590 l-6 -10 15 6 c18 7 21 14 7 14 -6 0 -13 -4 -16 -10z" />
    <path d="M593 3573 l7 -6 7 6 6 7 -13 0 -13 0 6 -7z" />
    <path d="M685 3570 l-6 -10 15 6 c18 7 21 14 7 14 -6 0 -13 -4 -16 -10z" />
    <path d="M520 3022 l0 -8 38 4 c58 5 62 10 10 11 l-48 1 0 -8z" />
    <path d="M670 3023 l0 -8 45 0 45 0 0 8 0 7 -45 0 -45 0 0 -7z" />
    <path d="M1013 3023 l7 -6 7 6 6 7 -13 0 -13 0 6 -7z" />
    <path d="M1143 3023 l7 -6 7 6 6 7 -13 0 -13 0 6 -7z" />
    <path d="M1415 3025 c6 -2 27 -5 48 -7 l37 -4 0 8 0 8 -47 -1 c-27 0 -43 -2
-38 -4z" />
    <path d="M1590 3023 l0 -8 45 0 45 0 0 8 0 7 -45 0 -45 0 0 -7z" />
    <path d="M2150 3024 c19 -2 72 -5 118 -6 l82 -3 0 8 0 7 -117 -2 c-65 -1 -102
-3 -83 -4z" />
    <path d="M2570 3020 l-15 -10 12 0 c6 0 15 5 18 10 8 12 4 12 -15 0z" />
    <path d="M2713 3023 l7 -6 7 6 6 7 -13 0 -13 0 6 -7z" />
    <path d="M3230 3023 l0 -8 62 3 c107 5 117 9 26 11 l-88 1 0 -7z" />
    <path d="M3700 3020 l-15 -10 12 0 c6 0 15 5 18 10 8 12 4 12 -15 0z" />
    <path d="M3843 3023 l7 -6 7 6 6 7 -13 0 -13 0 6 -7z" />
    <path d="M2740 3016 c0 -2 8 -10 18 -17 l17 -14 -14 18 c-13 16 -21 21 -21 13z" />
    <path d="M3870 3016 c0 -2 8 -10 18 -17 l17 -14 -14 18 c-13 16 -21 21 -21 13z" />
    <path d="M3450 2991 c0 -6 4 -13 10 -16 l10 -6 -6 15 c-7 18 -14 21 -14 7z" />
    <path d="M970 2980 l0 -13 7 6 6 7 -6 7 -7 6 0 -13z" />
    <path d="M1063 2963 c-7 -2 -13 -9 -13 -15 l0 -10 15 12 15 12 15 -6 16 -6 -6
10 c-7 11 -22 12 -42 3z" />
    <path d="M2120 2960 c0 -5 5 -10 11 -10 l10 0 -6 10 c-3 6 -8 10 -11 10 -2 0
-4 -4 -4 -10z" />
    <path d="M2543 2890 l0 -85 4 43 c2 23 2 61 0 85 l-4 42 0 -85z" />
    <path d="M2636 2961 l-6 -9 20 5 c23 6 26 13 6 13 -8 0 -17 -4 -20 -9z" />
    <path d="M3673 2890 l0 -85 4 43 c2 23 2 61 0 85 l-4 42 0 -85z" />
    <path d="M3766 2961 l-6 -9 20 5 c23 6 26 13 6 13 -8 0 -17 -4 -20 -9z" />
    <path d="M3310 2895 l0 -65 8 0 7 0 0 65 0 65 -7 0 -8 0 0 -65z" />
    <path d="M665 2940 l-6 -10 10 0 c6 0 11 5 11 10 0 6 -2 10 -4 10 -3 0 -8 -4
-11 -10z" />
    <path d="M1502 2914 l-13 -15 4 -12 4 -12 12 23 c15 28 11 36 -7 16z" />
    <path d="M1580 2890 c0 -5 5 -10 10 -10 6 0 10 5 10 10 0 6 -4 10 -10 10 -5 0
-10 -4 -10 -10z" />
    <path d="M665 2850 c3 -5 8 -10 11 -10 2 0 4 5 4 10 0 6 -5 10 -11 10 l-10 0
6 -10z" />
    <path d="M1410 2840 l0 -13 7 6 6 7 -6 7 -7 6 0 -13z" />
    <path d="M2620 2840 c0 -5 5 -10 11 -10 l10 0 -6 10 c-3 6 -8 10 -11 10 -2 0
-4 -4 -4 -10z" />
    <path d="M3750 2840 c0 -5 5 -10 11 -10 l10 0 -6 10 c-3 6 -8 10 -11 10 -2 0
-4 -4 -4 -10z" />
    <path d="M1057 2829 l13 -13 5 6 6 6 -18 6 -18 7 12 -12z" />
    <path d="M1100 2830 l-15 -10 12 0 c6 0 15 5 18 10 8 12 4 12 -15 0z" />
    <path d="M1659 2814 c-5 -15 -8 -29 -5 -31 2 -2 8 10 14 26 13 38 5 41 -9 5z" />
    <path d="M2670 2830 l-15 -10 12 0 c6 0 15 5 18 10 8 12 4 12 -15 0z" />
    <path d="M3800 2830 l-15 -10 12 0 c6 0 15 5 18 10 8 12 4 12 -15 0z" />
    <path d="M1525 2819 c-4 -6 -5 -12 -2 -15 2 -3 7 2 10 11 7 17 1 20 -8 4z" />
    <path d="M3455 2809 c-4 -6 -5 -12 -2 -15 2 -3 7 2 10 11 7 17 1 20 -8 4z" />
    <path d="M1556 2797 l6 -18 6 6 6 5 -13 13 -12 12 7 -18z" />
    <path d="M1430 2780 c6 -11 13 -20 16 -20 2 0 0 9 -6 20 -6 11 -13 20 -16 20
-2 0 0 -9 6 -20z" />
    <path d="M2750 2785 l-12 -15 10 0 c5 0 12 7 16 15 3 8 4 15 2 15 -2 0 -9 -7
-16 -15z" />
    <path d="M3880 2785 l-12 -15 10 0 c5 0 12 7 16 15 3 8 4 15 2 15 -2 0 -9 -7
-16 -15z" />
    <path d="M520 2770 c0 -5 5 -10 11 -10 l10 0 -6 10 c-3 6 -8 10 -11 10 -2 0
-4 -4 -4 -10z" />
    <path d="M1505 2770 l-6 -10 10 0 c6 0 11 5 11 10 0 6 -2 10 -4 10 -3 0 -8 -4
-11 -10z" />
    <path d="M2185 2770 c3 -5 8 -10 11 -10 3 0 2 5 -1 10 -3 6 -8 10 -11 10 -3 0
-2 -4 1 -10z" />
    <path d="M1010 2766 c0 -2 7 -7 16 -10 l15 -6 -6 10 c-6 10 -25 14 -25 6z" />
    <path d="M1135 2760 l-6 -10 15 6 c18 7 21 14 7 14 -6 0 -13 -4 -16 -10z" />
    <path d="M2583 2763 l7 -6 7 6 6 7 -13 0 -13 0 6 -7z" />
    <path d="M3393 2763 l7 -6 7 6 6 7 -13 0 -13 0 6 -7z" />
    <path d="M3713 2763 l7 -6 7 6 6 7 -13 0 -13 0 6 -7z" />
  </g>
  <g transform="translate(0.000000,500.000000) scale(0.100000,-0.100000)" fill="#ffdda5" stroke="none">
    <path d="M1603 3863 c9 -2 23 -2 30 0 l12 5 -30 0 -30 0 18 -5z" />
    <path d="M1762 3715 l0 -30 5 18 c2 9 2 23 0 30 l-5 12 0 -30z" />
    <path d="M1461 3714 l1 -19 5 13 5 13 -6 6 -6 6 1 -19z" />
    <path d="M1490 3625 c0 -3 2 -5 5 -5 3 0 5 2 5 5 0 3 -2 5 -5 5 -3 0 -5 -2 -5
-5z" />
    <path d="M1520 3595 c0 -3 2 -5 5 -5 3 0 5 2 5 5 0 3 -2 5 -5 5 -3 0 -5 -2 -5
-5z" />
    <path d="M1608 3563 l13 -5 6 6 6 6 -19 -1 -19 -1 13 -5z" />
    <path d="M3074 2178 l-7 -11 11 7 c7 4 12 9 12 12 0 8 -9 4 -16 -8z" />
    <path d="M743 2173 l7 -6 7 6 6 7 -13 0 -13 0 6 -7z" />
    <path d="M770 2165 c0 -3 2 -5 5 -5 3 0 5 2 5 5 0 3 -2 5 -5 5 -3 0 -5 -2 -5
-5z" />
    <path d="M2032 2140 l0 -35 5 18 c2 9 2 25 0 35 l-5 17 0 -35z" />
    <path d="M1390 2155 c0 -3 2 -5 5 -5 3 0 5 2 5 5 0 3 -2 5 -5 5 -3 0 -5 -2 -5
-5z" />
    <path d="M790 2145 c0 -3 2 -5 5 -5 3 0 5 2 5 5 0 3 -2 5 -5 5 -3 0 -5 -2 -5
-5z" />
    <path d="M2850 2130 l0 -13 7 6 6 7 -6 7 -7 6 0 -13z" />
    <path d="M2650 2110 l0 -13 7 6 6 7 -6 7 -7 6 0 -13z" />
    <path d="M630 2095 c0 -3 2 -5 5 -5 3 0 5 2 5 5 0 3 -2 5 -5 5 -3 0 -5 -2 -5
-5z" />
    <path d="M695 2090 c3 -5 8 -10 11 -10 3 0 2 5 -1 10 -3 6 -8 10 -11 10 -3 0
-2 -4 1 -10z" />
    <path d="M1483 2093 l7 -6 7 6 6 7 -13 0 -13 0 6 -7z" />
    <path d="M2767 2079 l7 -23 4 13 4 13 -10 10 -11 11 6 -24z" />
    <path d="M1973 2015 l0 -80 4 43 c2 23 2 59 0 80 l-4 37 0 -80z" />
    <path d="M2881 2054 l1 -19 5 13 5 13 -6 6 -6 6 1 -19z" />
    <path d="M653 1943 c9 -2 23 -2 30 0 l12 5 -30 0 -30 0 18 -5z" />
    <path d="M1493 1943 c9 -2 25 -2 35 0 l17 5 -35 0 -35 0 18 -5z" />
    <path d="M2020 1945 c0 -3 2 -5 5 -5 3 0 5 2 5 5 0 3 -2 5 -5 5 -3 0 -5 -2 -5
-5z" />
    <path d="M3183 1943 c9 -2 25 -2 35 0 l17 5 -35 0 -35 0 18 -5z" />
    <path d="M1370 1935 c0 -3 2 -5 5 -5 3 0 5 2 5 5 0 3 -2 5 -5 5 -3 0 -5 -2 -5
-5z" />
    <path d="M2028 1895 l-4 -35 8 0 8 0 0 35 c0 19 -2 35 -4 35 -2 0 -6 -16 -8
-35z" />
    <path d="M530 1870 l0 -13 7 6 6 7 -6 7 -7 6 0 -13z" />
    <path d="M1810 1870 l0 -13 7 6 6 7 -6 7 -7 6 0 -13z" />
    <path d="M2270 1870 c0 -5 5 -10 11 -10 l10 0 -6 10 c-3 6 -8 10 -11 10 -2 0
-4 -4 -4 -10z" />
    <path d="M2890 1870 l0 -13 7 6 6 7 -6 7 -7 6 0 -13z" />
    <path d="M743 1863 l7 -6 7 6 6 7 -13 0 -13 0 6 -7z" />
    <path d="M1235 1560 c3 -5 8 -10 11 -10 3 0 2 5 -1 10 -3 6 -8 10 -11 10 -3 0
-2 -4 1 -10z" />
    <path d="M3045 1560 c3 -5 8 -10 11 -10 3 0 2 5 -1 10 -3 6 -8 10 -11 10 -3 0
-2 -4 1 -10z" />
    <path d="M3214 1558 l-7 -11 11 7 c7 4 12 9 12 12 0 8 -9 4 -16 -8z" />
    <path d="M3614 1558 l-7 -11 11 7 c7 4 12 9 12 12 0 8 -9 4 -16 -8z" />
    <path d="M1683 1553 l7 -6 7 6 6 7 -13 0 -13 0 6 -7z" />
    <path d="M655 1510 c3 -5 8 -10 11 -10 3 0 2 5 -1 10 -3 6 -8 10 -11 10 -3 0
-2 -4 1 -10z" />
    <path d="M2180 1510 l0 -13 7 6 6 7 -6 7 -7 6 0 -13z" />
    <path d="M704 1488 l-7 -11 11 7 c12 7 16 16 8 16 -3 0 -8 -5 -12 -12z" />
    <path d="M1731 1474 l1 -19 5 13 5 13 -6 6 -6 6 1 -19z" />
    <path d="M3050 1485 c0 -3 2 -5 5 -5 3 0 5 2 5 5 0 3 -2 5 -5 5 -3 0 -5 -2 -5
-5z" />
    <path d="M3210 1485 c0 -3 2 -5 5 -5 3 0 5 2 5 5 0 3 -2 5 -5 5 -3 0 -5 -2 -5
-5z" />
    <path d="M1050 1470 l0 -13 7 6 6 7 -6 7 -7 6 0 -13z" />
    <path d="M1625 1470 c3 -5 8 -10 11 -10 2 0 4 5 4 10 0 6 -5 10 -11 10 l-10 0
6 -10z" />
    <path d="M1281 1454 l1 -19 5 13 5 13 -6 6 -6 6 1 -19z" />
    <path d="M2060 1460 l0 -13 7 6 6 7 -6 7 -7 6 0 -13z" />
    <path d="M2968 1355 l-3 -115 8 0 7 0 0 115 c0 149 -8 149 -12 0z" />
    <path d="M2490 1450 l0 -13 7 6 6 7 -6 7 -7 6 0 -13z" />
    <path d="M1630 1445 c0 -3 2 -5 5 -5 3 0 5 2 5 5 0 3 -2 5 -5 5 -3 0 -5 -2 -5
-5z" />
    <path d="M1186 1415 l-5 -15 9 0 10 0 0 15 c0 8 -2 15 -4 15 -2 0 -6 -7 -10
-15z" />
    <path d="M1598 1423 l13 -5 6 6 6 6 -19 -1 -19 -1 13 -5z" />
    <path d="M2195 1420 c3 -5 8 -10 11 -10 3 0 2 5 -1 10 -3 6 -8 10 -11 10 -3 0
-2 -4 1 -10z" />
    <path d="M2592 1405 l0 -30 5 18 c2 9 2 23 0 30 l-5 12 0 -30z" />
    <path d="M630 1405 c0 -3 2 -5 5 -5 3 0 5 2 5 5 0 3 -2 5 -5 5 -3 0 -5 -2 -5
-5z" />
    <path d="M735 1400 l-6 -10 10 0 c6 0 11 5 11 10 0 6 -2 10 -4 10 -3 0 -8 -4
-11 -10z" />
    <path d="M1300 1385 c0 -3 2 -5 5 -5 3 0 5 2 5 5 0 3 -2 5 -5 5 -3 0 -5 -2 -5
-5z" />
    <path d="M3740 1365 c0 -3 2 -5 5 -5 3 0 5 2 5 5 0 3 -2 5 -5 5 -3 0 -5 -2 -5
-5z" />
    <path d="M663 1353 l7 -6 7 6 6 7 -13 0 -13 0 6 -7z" />
    <path d="M2499 1327 l8 -8 64 3 64 3 -72 5 -72 5 8 -8z" />
    <path d="M3220 1325 c0 -3 2 -5 5 -5 3 0 5 2 5 5 0 3 -2 5 -5 5 -3 0 -5 -2 -5
-5z" />
    <path d="M3420 1325 c0 -3 2 -5 5 -5 3 0 5 2 5 5 0 3 -2 5 -5 5 -3 0 -5 -2 -5
-5z" />
    <path d="M4203 1323 c9 -2 23 -2 30 0 l12 5 -30 0 -30 0 18 -5z" />
    <path d="M1118 1275 l-4 -35 8 0 8 0 0 35 c0 19 -2 35 -4 35 -2 0 -6 -16 -8
-35z" />
    <path d="M530 1250 l0 -13 7 6 6 7 -6 7 -7 6 0 -13z" />
    <path d="M1480 1250 l0 -13 7 6 6 7 -6 7 -7 6 0 -13z" />
    <path d="M2110 1250 l0 -13 7 6 6 7 -6 7 -7 6 0 -13z" />
    <path d="M2390 1250 l0 -13 7 6 6 7 -6 7 -7 6 0 -13z" />
  </g>
  <g transform="translate(0.000000,500.000000) scale(0.100000,-0.100000)" fill="#ffc970" stroke="none">
    <path d="M1560 3855 c0 -3 2 -5 5 -5 3 0 5 2 5 5 0 3 -2 5 -5 5 -3 0 -5 -2 -5
-5z" />
    <path d="M1660 3855 c0 -3 2 -5 5 -5 3 0 5 2 5 5 0 3 -2 5 -5 5 -3 0 -5 -2 -5
-5z" />
    <path d="M1715 3820 c3 -5 8 -10 11 -10 3 0 2 5 -1 10 -3 6 -8 10 -11 10 -3 0
-2 -4 1 -10z" />
    <path d="M1480 3785 c0 -3 2 -5 5 -5 3 0 5 2 5 5 0 3 -2 5 -5 5 -3 0 -5 -2 -5
-5z" />
    <path d="M1750 3765 c0 -3 2 -5 5 -5 3 0 5 2 5 5 0 3 -2 5 -5 5 -3 0 -5 -2 -5
-5z" />
    <path d="M1750 3665 c0 -3 2 -5 5 -5 3 0 5 2 5 5 0 3 -2 5 -5 5 -3 0 -5 -2 -5
-5z" />
    <path d="M1480 3645 c0 -3 2 -5 5 -5 3 0 5 2 5 5 0 3 -2 5 -5 5 -3 0 -5 -2 -5
-5z" />
    <path d="M1540 3585 c0 -3 2 -5 5 -5 3 0 5 2 5 5 0 3 -2 5 -5 5 -3 0 -5 -2 -5
-5z" />
    <path d="M1680 3585 c0 -3 2 -5 5 -5 3 0 5 2 5 5 0 3 -2 5 -5 5 -3 0 -5 -2 -5
-5z" />
    <path d="M2825 2180 c3 -5 8 -10 11 -10 3 0 2 5 -1 10 -3 6 -8 10 -11 10 -3 0
-2 -4 1 -10z" />
    <path d="M530 2170 l0 -13 7 6 6 7 -6 7 -7 6 0 -13z" />
    <path d="M740 2175 c0 -3 2 -5 5 -5 3 0 5 2 5 5 0 3 -2 5 -5 5 -3 0 -5 -2 -5
-5z" />
    <path d="M2192 2140 l0 -35 5 18 c2 9 2 25 0 35 l-5 17 0 -35z" />
    <path d="M1374 2128 l-7 -11 11 7 c12 7 16 16 8 16 -3 0 -8 -5 -12 -12z" />
    <path d="M1810 2110 l0 -13 7 6 6 7 -6 7 -7 6 0 -13z" />
    <path d="M800 2100 l0 -13 7 6 6 7 -6 7 -7 6 0 -13z" />
    <path d="M1474 2088 l-7 -11 11 7 c12 7 16 16 8 16 -3 0 -8 -5 -12 -12z" />
    <path d="M1873 2025 l0 -80 4 43 c2 23 2 59 0 80 l-4 37 0 -80z" />
    <path d="M2740 2090 l0 -13 7 6 6 7 -6 7 -7 6 0 -13z" />
    <path d="M2770 2085 c0 -3 2 -5 5 -5 3 0 5 2 5 5 0 3 -2 5 -5 5 -3 0 -5 -2 -5
-5z" />
    <path d="M2875 2070 c3 -5 8 -10 11 -10 3 0 2 5 -1 10 -3 6 -8 10 -11 10 -3 0
-2 -4 1 -10z" />
    <path d="M2630 2055 c0 -3 2 -5 5 -5 3 0 5 2 5 5 0 3 -2 5 -5 5 -3 0 -5 -2 -5
-5z" />
    <path d="M1540 2025 c0 -3 2 -5 5 -5 3 0 5 2 5 5 0 3 -2 5 -5 5 -3 0 -5 -2 -5
-5z" />
    <path d="M1635 2020 c3 -5 8 -10 11 -10 3 0 2 5 -1 10 -3 6 -8 10 -11 10 -3 0
-2 -4 1 -10z" />
    <path d="M2891 1994 l1 -19 5 13 5 13 -6 6 -6 6 1 -19z" />
    <path d="M801 1944 l1 -19 5 13 5 13 -6 6 -6 6 1 -19z" />
    <path d="M1475 1950 c3 -5 8 -10 11 -10 3 0 2 5 -1 10 -3 6 -8 10 -11 10 -3 0
-2 -4 1 -10z" />
    <path d="M1811 1934 l1 -19 5 13 5 13 -6 6 -6 6 1 -19z" />
    <path d="M1970 1945 c0 -3 2 -5 5 -5 3 0 5 2 5 5 0 3 -2 5 -5 5 -3 0 -5 -2 -5
-5z" />
    <path d="M3170 1945 c0 -3 2 -5 5 -5 3 0 5 2 5 5 0 3 -2 5 -5 5 -3 0 -5 -2 -5
-5z" />
    <path d="M2713 1905 l0 -40 4 23 c2 12 2 30 0 40 l-5 17 1 -40z" />
    <path d="M2890 1880 l0 -13 7 6 6 7 -6 7 -7 6 0 -13z" />
    <path d="M755 1870 l-6 -10 15 6 c18 7 21 14 7 14 -6 0 -13 -4 -16 -10z" />
    <path d="M1194 1868 l-7 -11 11 7 c12 7 16 16 8 16 -3 0 -8 -5 -12 -12z" />
    <path d="M1450 1865 c0 -3 2 -5 5 -5 3 0 5 2 5 5 0 3 -2 5 -5 5 -3 0 -5 -2 -5
-5z" />
    <path d="M1630 1865 c0 -3 2 -5 5 -5 3 0 5 2 5 5 0 3 -2 5 -5 5 -3 0 -5 -2 -5
-5z" />
    <path d="M2800 1865 c0 -3 2 -5 5 -5 3 0 5 2 5 5 0 3 -2 5 -5 5 -3 0 -5 -2 -5
-5z" />
    <path d="M3680 1566 c0 -2 8 -10 18 -17 l17 -14 -14 18 c-13 16 -21 21 -21 13z" />
    <path d="M530 1550 l0 -13 7 6 6 7 -6 7 -7 6 0 -13z" />
    <path d="M840 1555 c0 -3 2 -5 5 -5 3 0 5 2 5 5 0 3 -2 5 -5 5 -3 0 -5 -2 -5
-5z" />
    <path d="M1480 1550 l0 -13 7 6 6 7 -6 7 -7 6 0 -13z" />
    <path d="M2390 1550 l0 -13 7 6 6 7 -6 7 -7 6 0 -13z" />
    <path d="M3880 1555 c0 -3 2 -5 5 -5 3 0 5 2 5 5 0 3 -2 5 -5 5 -3 0 -5 -2 -5
-5z" />
    <path d="M730 1540 l0 -13 7 6 6 7 -6 7 -7 6 0 -13z" />
    <path d="M1074 1538 l-7 -11 11 7 c7 4 12 9 12 12 0 8 -9 4 -16 -8z" />
    <path d="M2033 1495 l0 -60 4 33 c2 18 2 45 0 60 l-4 27 0 -60z" />
    <path d="M2194 1538 l-7 -11 11 7 c7 4 12 9 12 12 0 8 -9 4 -16 -8z" />
    <path d="M640 1535 c0 -3 2 -5 5 -5 3 0 5 2 5 5 0 3 -2 5 -5 5 -3 0 -5 -2 -5
-5z" />
    <path d="M3432 1520 l0 -25 5 13 c2 6 2 18 0 25 l-5 12 0 -25z" />
    <path d="M4084 1528 l-7 -11 11 7 c7 4 12 9 12 12 0 8 -9 4 -16 -8z" />
    <path d="M4302 1520 l0 -25 5 13 c2 6 2 18 0 25 l-5 12 0 -25z" />
    <path d="M1255 1520 c3 -5 8 -10 11 -10 3 0 2 5 -1 10 -3 6 -8 10 -11 10 -3 0
-2 -4 1 -10z" />
    <path d="M2074 1498 l-7 -11 11 7 c7 4 12 9 12 12 0 8 -9 4 -16 -8z" />
    <path d="M1060 1495 c0 -3 2 -5 5 -5 3 0 5 2 5 5 0 3 -2 5 -5 5 -3 0 -5 -2 -5
-5z" />
    <path d="M1581 1486 c2 -2 18 -6 34 -10 l30 -7 -15 11 c-14 9 -59 15 -49 6z" />
    <path d="M1275 1470 c3 -5 8 -10 11 -10 3 0 2 5 -1 10 -3 6 -8 10 -11 10 -3 0
-2 -4 1 -10z" />
    <path d="M3270 1475 c0 -3 2 -5 5 -5 3 0 5 2 5 5 0 3 -2 5 -5 5 -3 0 -5 -2 -5
-5z" />
    <path d="M3373 1400 l0 -85 4 43 c2 23 2 61 0 85 l-4 42 0 -85z" />
    <path d="M3765 1470 c3 -5 8 -10 11 -10 3 0 2 5 -1 10 -3 6 -8 10 -11 10 -3 0
-2 -4 1 -10z" />
    <path d="M1185 1430 c3 -5 8 -10 11 -10 3 0 2 5 -1 10 -3 6 -8 10 -11 10 -3 0
-2 -4 1 -10z" />
    <path d="M2190 1425 c0 -3 2 -5 5 -5 3 0 5 2 5 5 0 3 -2 5 -5 5 -3 0 -5 -2 -5
-5z" />
    <path d="M1735 1400 c3 -5 8 -10 11 -10 2 0 4 5 4 10 0 6 -5 10 -11 10 l-10 0
6 -10z" />
    <path d="M735 1390 c3 -5 8 -10 11 -10 2 0 4 5 4 10 0 6 -5 10 -11 10 l-10 0
6 -10z" />
    <path d="M720 1370 l0 -13 7 6 6 7 -6 7 -7 6 0 -13z" />
    <path d="M2033 1305 l0 -60 4 33 c2 18 2 45 0 60 l-4 27 0 -60z" />
    <path d="M3765 1340 c3 -5 8 -10 11 -10 3 0 2 5 -1 10 -3 6 -8 10 -11 10 -3 0
-2 -4 1 -10z" />
    <path d="M1663 1290 l0 -45 4 23 c2 12 2 32 0 45 l-4 22 0 -45z" />
    <path d="M3270 1325 c0 -3 2 -5 5 -5 3 0 5 2 5 5 0 3 -2 5 -5 5 -3 0 -5 -2 -5
-5z" />
    <path d="M4230 1325 c0 -3 2 -5 5 -5 3 0 5 2 5 5 0 3 -2 5 -5 5 -3 0 -5 -2 -5
-5z" />
    <path d="M3432 1285 l0 -30 5 18 c2 9 2 23 0 30 l-5 12 0 -30z" />
    <path d="M1574 1248 l-7 -11 11 7 c12 7 16 16 8 16 -3 0 -8 -5 -12 -12z" />
    <path d="M750 1245 c0 -3 2 -5 5 -5 3 0 5 2 5 5 0 3 -2 5 -5 5 -3 0 -5 -2 -5
-5z" />
    <path d="M2200 1245 c0 -3 2 -5 5 -5 3 0 5 2 5 5 0 3 -2 5 -5 5 -3 0 -5 -2 -5
-5z" />
    <path d="M2620 1245 c0 -3 2 -5 5 -5 3 0 5 2 5 5 0 3 -2 5 -5 5 -3 0 -5 -2 -5
-5z" />
    <path d="M4143 1243 l7 -6 7 6 6 7 -13 0 -13 0 6 -7z" />
  </g>
  <g transform="translate(0.000000,500.000000) scale(0.100000,-0.100000)" fill="#a37db7" stroke="none">
    <path d="M710 3850 c8 -5 20 -10 25 -10 l10 0 -15 10 c-8 5 -19 10 -25 10
l-10 0 15 -10z" />
    <path d="M514 3788 l-7 -11 11 7 c7 4 12 9 12 12 0 8 -9 4 -16 -8z" />
    <path d="M790 3760 l0 -13 7 6 6 7 -6 7 -7 6 0 -13z" />
    <path d="M501 3744 l1 -19 5 13 5 13 -6 6 -6 6 1 -19z" />
    <path d="M501 3684 l-1 -20 16 -20 c8 -10 12 -13 9 -6 -4 8 -11 26 -15 40 l-8
27 -1 -21z" />
    <path d="M670 2983 l-5 -52 8 8 8 8 -3 44 -3 44 -5 -52z" />
    <path d="M754 2895 l0 -140 3 73 c2 40 2 103 0 140 l-3 67 0 -140z" />
    <path d="M1588 2959 l-3 -71 8 -5 7 -4 0 75 c0 96 -7 99 -12 5z" />
    <path d="M2583 3023 l7 -6 7 6 6 7 -13 0 -13 0 6 -7z" />
    <path d="M3234 2895 l0 -140 3 73 c2 40 2 103 0 140 l-3 67 0 -140z" />
    <path d="M3393 3023 l7 -6 7 6 6 7 -13 0 -13 0 6 -7z" />
    <path d="M3713 3023 l7 -6 7 6 6 7 -13 0 -13 0 6 -7z" />
    <path d="M3430 3016 c0 -2 8 -10 18 -17 l17 -14 -14 18 c-13 16 -21 21 -21 13z" />
    <path d="M970 2990 l0 -13 7 6 6 7 -6 7 -7 6 0 -13z" />
    <path d="M1190 2990 l0 -13 7 6 6 7 -6 7 -7 6 0 -13z" />
    <path d="M2541 2974 l1 -19 5 13 5 13 -6 6 -6 6 1 -19z" />
    <path d="M3671 2974 l1 -19 5 13 5 13 -6 6 -6 6 1 -19z" />
    <path d="M1105 2950 c3 -5 8 -10 11 -10 2 0 4 5 4 10 0 6 -5 10 -11 10 l-10 0
6 -10z" />
    <path d="M2270 2949 l0 -10 10 6 c6 3 10 8 10 11 0 2 -4 4 -10 4 -5 0 -10 -5
-10 -11z" />
    <path d="M2627 2953 l-7 -6 0 -52 0 -51 12 -12 c7 -7 19 -12 28 -11 l15 0 -23
10 -24 9 4 60 c1 33 3 60 2 60 0 0 -4 -3 -7 -7z" />
    <path d="M3365 2950 c3 -5 8 -10 11 -10 2 0 4 5 4 10 0 6 -5 10 -11 10 l-10 0
6 -10z" />
    <path d="M3757 2953 l-7 -6 0 -52 0 -51 12 -12 c7 -7 19 -12 28 -11 l15 0 -23
10 -24 9 4 60 c1 33 3 60 2 60 0 0 -4 -3 -7 -7z" />
    <path d="M1528 2933 c6 -2 18 -2 25 0 l12 5 -25 0 -25 0 13 -5z" />
    <path d="M1490 2890 l0 -13 7 6 6 7 -6 7 -7 6 0 -13z" />
    <path d="M670 2807 l5 -52 3 44 3 44 -8 8 -8 8 5 -52z" />
    <path d="M1050 2840 l0 -13 7 6 6 7 -6 7 -7 6 0 -13z" />
    <path d="M1110 2840 l0 -13 7 6 6 7 -6 7 -7 6 0 -13z" />
    <path d="M1410 2830 l0 -13 7 6 6 7 -6 7 -7 6 0 -13z" />
    <path d="M1530 2830 l0 -11 9 5 9 6 5 -10 6 -10 -3 12 c-1 6 -8 14 -14 16
l-12 4 0 -12z" />
    <path d="M1078 2823 l13 -5 6 6 6 6 -19 -1 -19 -1 13 -5z" />
    <path d="M2540 2810 l0 -13 7 6 6 7 -6 7 -7 6 0 -13z" />
    <path d="M3670 2810 l0 -13 7 6 6 7 -6 7 -7 6 0 -13z" />
    <path d="M970 2803 c0 -6 8 -17 18 -24 l17 -14 -15 20 c-8 11 -16 22 -17 24
-2 2 -3 0 -3 -6z" />
    <path d="M1181 2787 l-13 -22 18 17 c10 10 16 20 13 22 -3 3 -11 -5 -18 -17z" />
    <path d="M1520 2800 l0 -13 7 6 6 7 -6 7 -7 6 0 -13z" />
    <path d="M3439 2783 l-14 -18 18 14 c9 7 17 15 17 17 0 8 -8 3 -21 -13z" />
    <path d="M1565 2770 c3 -5 8 -10 11 -10 3 0 2 5 -1 10 -3 6 -8 10 -11 10 -3 0
-2 -4 1 -10z" />
    <path d="M2730 2770 l-15 -10 10 0 c6 0 17 5 25 10 l15 10 -10 0 c-5 0 -17 -5
-25 -10z" />
    <path d="M3860 2770 l-15 -10 10 0 c6 0 17 5 25 10 l15 10 -10 0 c-5 0 -17 -5
-25 -10z" />
    <path d="M600 2765 c0 -3 2 -5 5 -5 3 0 5 2 5 5 0 3 -2 5 -5 5 -3 0 -5 -2 -5
-5z" />
    <path d="M3403 2763 l7 -6 7 6 6 7 -13 0 -13 0 6 -7z" />
  </g>
  <g transform="translate(0.000000,500.000000) scale(0.100000,-0.100000)" fill="#c3a9cf" stroke="none">
    <path d="M628 3863 c12 -2 32 -2 45 0 l22 4 -45 0 -45 0 23 -4z" />
    <path d="M574 3848 l-7 -11 11 7 c7 4 12 9 12 12 0 8 -9 4 -16 -8z" />
    <path d="M500 3760 l0 -13 7 6 6 7 -6 7 -7 6 0 -13z" />
    <path d="M500 3670 l0 -13 7 6 6 7 -6 7 -7 6 0 -13z" />
    <path d="M570 3585 c0 -3 2 -5 5 -5 3 0 5 2 5 5 0 3 -2 5 -5 5 -3 0 -5 -2 -5
-5z" />
    <path d="M714 3578 l-7 -11 11 7 c7 4 12 9 12 12 0 8 -9 4 -16 -8z" />
    <path d="M590 3575 c0 -3 2 -5 5 -5 3 0 5 2 5 5 0 3 -2 5 -5 5 -3 0 -5 -2 -5
-5z" />
    <path d="M643 3563 c9 -2 23 -2 30 0 l12 5 -30 0 -30 0 18 -5z" />
    <path d="M1073 3033 c9 -2 23 -2 30 0 l12 5 -30 0 -30 0 18 -5z" />
    <path d="M2648 3033 c6 -2 18 -2 25 0 l12 5 -25 0 -25 0 13 -5z" />
    <path d="M3778 3033 c6 -2 18 -2 25 0 l12 5 -25 0 -25 0 13 -5z" />
    <path d="M1010 3025 c0 -3 2 -5 5 -5 3 0 5 2 5 5 0 3 -2 5 -5 5 -3 0 -5 -2 -5
-5z" />
    <path d="M1150 3025 c0 -3 2 -5 5 -5 3 0 5 2 5 5 0 3 -2 5 -5 5 -3 0 -5 -2 -5
-5z" />
    <path d="M2343 2995 l0 -40 4 23 c2 12 2 30 0 40 l-5 17 1 -40z" />
    <path d="M524 2890 l0 -135 3 68 c2 37 2 97 0 135 l-3 67 0 -135z" />
    <path d="M984 3008 l-7 -11 11 7 c12 7 16 16 8 16 -3 0 -8 -5 -12 -12z" />
    <path d="M1175 3010 c3 -5 8 -10 11 -10 3 0 2 5 -1 10 -3 6 -8 10 -11 10 -3 0
-2 -4 1 -10z" />
    <path d="M1490 2955 l0 -68 7 6 7 7 -3 58 c-4 80 -11 79 -11 -3z" />
    <path d="M3430 3015 c0 -3 2 -5 5 -5 3 0 5 2 5 5 0 3 -2 5 -5 5 -3 0 -5 -2 -5
-5z" />
    <path d="M2540 2985 c0 -3 2 -5 5 -5 3 0 5 2 5 5 0 3 -2 5 -5 5 -3 0 -5 -2 -5
-5z" />
    <path d="M3670 2985 c0 -3 2 -5 5 -5 3 0 5 2 5 5 0 3 -2 5 -5 5 -3 0 -5 -2 -5
-5z" />
    <path d="M3463 2895 l0 -80 4 43 c2 23 2 59 0 80 l-4 37 0 -80z" />
    <path d="M1055 2949 c-4 -6 -5 -12 -2 -15 2 -3 7 2 10 11 7 17 1 20 -8 4z" />
    <path d="M2175 2950 c3 -5 8 -10 11 -10 2 0 4 5 4 10 0 6 -5 10 -11 10 l-10 0
6 -10z" />
    <path d="M623 2933 c9 -2 25 -2 35 0 l17 5 -35 0 -35 0 18 -5z" />
    <path d="M1580 2895 c0 -3 2 -5 5 -5 3 0 5 2 5 5 0 3 -2 5 -5 5 -3 0 -5 -2 -5
-5z" />
    <path d="M1671 2854 l1 -19 5 13 5 13 -6 6 -6 6 1 -19z" />
    <path d="M2680 2840 l0 -13 7 6 6 7 -6 7 -7 6 0 -13z" />
    <path d="M3810 2840 l0 -13 7 6 6 7 -6 7 -7 6 0 -13z" />
    <path d="M1550 2810 l0 -13 7 6 6 7 -6 7 -7 6 0 -13z" />
    <path d="M2540 2803 c0 -6 8 -17 18 -24 l17 -14 -15 20 c-8 11 -16 22 -17 24
-2 2 -3 0 -3 -6z" />
    <path d="M3670 2803 c0 -6 8 -17 18 -24 l17 -14 -15 20 c-8 11 -16 22 -17 24
-2 2 -3 0 -3 -6z" />
    <path d="M3450 2795 c0 -3 2 -5 5 -5 3 0 5 2 5 5 0 3 -2 5 -5 5 -3 0 -5 -2 -5
-5z" />
    <path d="M1650 2785 c0 -3 2 -5 5 -5 3 0 5 2 5 5 0 3 -2 5 -5 5 -3 0 -5 -2 -5
-5z" />
    <path d="M670 2765 c0 -3 2 -5 5 -5 3 0 5 2 5 5 0 3 -2 5 -5 5 -3 0 -5 -2 -5
-5z" />
    <path d="M750 2765 c0 -3 2 -5 5 -5 3 0 5 2 5 5 0 3 -2 5 -5 5 -3 0 -5 -2 -5
-5z" />
    <path d="M1640 2765 c0 -3 2 -5 5 -5 3 0 5 2 5 5 0 3 -2 5 -5 5 -3 0 -5 -2 -5
-5z" />
    <path d="M2580 2765 c0 -3 2 -5 5 -5 3 0 5 2 5 5 0 3 -2 5 -5 5 -3 0 -5 -2 -5
-5z" />
    <path d="M3413 2763 l7 -6 7 6 6 7 -13 0 -13 0 6 -7z" />
    <path d="M3710 2765 c0 -3 2 -5 5 -5 3 0 5 2 5 5 0 3 -2 5 -5 5 -3 0 -5 -2 -5
-5z" />
    <path d="M1048 2753 c6 -2 18 -2 25 0 l12 5 -25 0 -25 0 13 -5z" />
    <path d="M1108 2753 l13 -5 6 6 6 6 -19 -1 -19 -1 13 -5z" />
    <path d="M2628 2753 l13 -5 6 6 6 6 -19 -1 -19 -1 13 -5z" />
    <path d="M2678 2753 l13 -5 6 6 6 6 -19 -1 -19 -1 13 -5z" />
    <path d="M3758 2753 l13 -5 6 6 6 6 -19 -1 -19 -1 13 -5z" />
    <path d="M3808 2753 l13 -5 6 6 6 6 -19 -1 -19 -1 13 -5z" />
  </g>
  <g transform="translate(0.000000,500.000000) scale(0.100000,-0.100000)" fill="#cebad9" stroke="none">
    <path d="M539 3823 l-14 -18 18 14 c9 7 17 15 17 17 0 8 -8 3 -21 -13z" />
    <path d="M755 3820 c10 -11 20 -20 23 -20 3 0 -3 9 -13 20 -10 11 -20 20 -23
20 -3 0 3 -9 13 -20z" />
    <path d="M780 3785 c0 -3 2 -5 5 -5 3 0 5 2 5 5 0 3 -2 5 -5 5 -3 0 -5 -2 -5
-5z" />
    <path d="M790 3765 c0 -3 2 -5 5 -5 3 0 5 2 5 5 0 3 -2 5 -5 5 -3 0 -5 -2 -5
-5z" />
    <path d="M780 3645 c0 -3 2 -5 5 -5 3 0 5 2 5 5 0 3 -2 5 -5 5 -3 0 -5 -2 -5
-5z" />
    <path d="M749 3603 l-14 -18 18 14 c9 7 17 15 17 17 0 8 -8 3 -21 -13z" />
    <path d="M623 3563 l7 -6 7 6 6 7 -13 0 -13 0 6 -7z" />
    <path d="M1048 3033 l13 -5 6 6 6 6 -19 -1 -19 -1 13 -5z" />
    <path d="M1108 3033 l13 -5 6 6 6 6 -19 -1 -19 -1 13 -5z" />
    <path d="M2628 3033 l13 -5 6 6 6 6 -19 -1 -19 -1 13 -5z" />
    <path d="M2678 3033 l13 -5 6 6 6 6 -19 -1 -19 -1 13 -5z" />
    <path d="M3758 3033 l13 -5 6 6 6 6 -19 -1 -19 -1 13 -5z" />
    <path d="M3808 3033 l13 -5 6 6 6 6 -19 -1 -19 -1 13 -5z" />
    <path d="M520 3020 l0 -13 7 6 6 7 -6 7 -7 6 0 -13z" />
    <path d="M670 3025 c0 -3 2 -5 5 -5 3 0 5 2 5 5 0 3 -2 5 -5 5 -3 0 -5 -2 -5
-5z" />
    <path d="M750 3025 c0 -3 2 -5 5 -5 3 0 5 2 5 5 0 3 -2 5 -5 5 -3 0 -5 -2 -5
-5z" />
    <path d="M1490 3020 l0 -13 7 6 6 7 -6 7 -7 6 0 -13z" />
    <path d="M1590 3025 c0 -3 2 -5 5 -5 3 0 5 2 5 5 0 3 -2 5 -5 5 -3 0 -5 -2 -5
-5z" />
    <path d="M2580 3025 c0 -3 2 -5 5 -5 3 0 5 2 5 5 0 3 -2 5 -5 5 -3 0 -5 -2 -5
-5z" />
    <path d="M3230 3025 c0 -3 2 -5 5 -5 3 0 5 2 5 5 0 3 -2 5 -5 5 -3 0 -5 -2 -5
-5z" />
    <path d="M3403 3023 l7 -6 7 6 6 7 -13 0 -13 0 6 -7z" />
    <path d="M3710 3025 c0 -3 2 -5 5 -5 3 0 5 2 5 5 0 3 -2 5 -5 5 -3 0 -5 -2 -5
-5z" />
    <path d="M2554 3008 l-7 -11 11 7 c12 7 16 16 8 16 -3 0 -8 -5 -12 -12z" />
    <path d="M3684 3008 l-7 -11 11 7 c7 4 12 9 12 12 0 8 -9 4 -16 -8z" />
    <path d="M3450 2995 c0 -3 2 -5 5 -5 3 0 5 2 5 5 0 3 -2 5 -5 5 -3 0 -5 -2 -5
-5z" />
    <path d="M3460 2970 l0 -13 7 6 6 7 -6 7 -7 6 0 -13z" />
    <path d="M2315 2963 c-16 -3 -33 -8 -37 -12 l-8 -7 35 4 35 4 6 9 c3 5 4 8 2
8 -2 -1 -16 -4 -33 -6z" />
    <path d="M2773 2895 l0 -80 4 43 c2 23 2 59 0 80 l-4 37 0 -80z" />
    <path d="M3903 2895 l0 -80 4 43 c2 23 2 59 0 80 l-4 37 0 -80z" />
    <path d="M1110 2897 l5 -62 3 54 3 54 -8 8 -8 8 5 -62z" />
    <path d="M2120 2956 c0 -2 15 -6 34 -8 l35 -4 -5 8 -5 8 -30 0 c-16 0 -29 -2
-29 -4z" />
    <path d="M1053 2890 l0 -55 4 28 c2 15 2 39 0 55 l-4 27 0 -55z" />
    <path d="M1514 2928 l-7 -11 11 7 c12 7 16 16 8 16 -3 0 -8 -5 -12 -12z" />
    <path d="M1500 2905 c0 -3 2 -5 5 -5 3 0 5 2 5 5 0 3 -2 5 -5 5 -3 0 -5 -2 -5
-5z" />
    <path d="M623 2853 c9 -2 25 -2 35 0 l17 5 -35 0 -35 0 18 -5z" />
    <path d="M1670 2840 l0 -13 7 6 6 7 -6 7 -7 6 0 -13z" />
    <path d="M1410 2825 c0 -3 2 -5 5 -5 3 0 5 2 5 5 0 3 -2 5 -5 5 -3 0 -5 -2 -5
-5z" />
    <path d="M3460 2820 l0 -13 7 6 6 7 -6 7 -7 6 0 -13z" />
    <path d="M970 2795 c0 -3 2 -5 5 -5 3 0 5 2 5 5 0 3 -2 5 -5 5 -3 0 -5 -2 -5
-5z" />
    <path d="M1190 2795 c0 -3 2 -5 5 -5 3 0 5 2 5 5 0 3 -2 5 -5 5 -3 0 -5 -2 -5
-5z" />
    <path d="M1520 2795 c0 -3 2 -5 5 -5 3 0 5 2 5 5 0 3 -2 5 -5 5 -3 0 -5 -2 -5
-5z" />
    <path d="M2270 2770 l0 -13 7 6 6 7 -6 7 -7 6 0 -13z" />
    <path d="M2730 2765 c0 -3 2 -5 5 -5 3 0 5 2 5 5 0 3 -2 5 -5 5 -3 0 -5 -2 -5
-5z" />
    <path d="M3230 2765 c0 -3 2 -5 5 -5 3 0 5 2 5 5 0 3 -2 5 -5 5 -3 0 -5 -2 -5
-5z" />
    <path d="M3860 2765 c0 -3 2 -5 5 -5 3 0 5 2 5 5 0 3 -2 5 -5 5 -3 0 -5 -2 -5
-5z" />
    <path d="M1033 2753 l7 -6 7 6 6 7 -13 0 -13 0 6 -7z" />
    <path d="M1123 2753 l7 -6 7 6 6 7 -13 0 -13 0 6 -7z" />
    <path d="M2613 2753 l7 -6 7 6 6 7 -13 0 -13 0 6 -7z" />
    <path d="M2693 2753 l7 -6 7 6 6 7 -13 0 -13 0 6 -7z" />
    <path d="M3743 2753 l7 -6 7 6 6 7 -13 0 -13 0 6 -7z" />
    <path d="M3823 2753 l7 -6 7 6 6 7 -13 0 -13 0 6 -7z" />
  </g>
  <g transform="translate(0.000000,500.000000) scale(0.100000,-0.100000)" fill="#ffc15d" stroke="none">
    <path d="M1540 3845 c0 -3 2 -5 5 -5 3 0 5 2 5 5 0 3 -2 5 -5 5 -3 0 -5 -2 -5
-5z" />
    <path d="M1680 3845 c0 -3 2 -5 5 -5 3 0 5 2 5 5 0 3 -2 5 -5 5 -3 0 -5 -2 -5
-5z" />
    <path d="M1740 3785 c0 -3 2 -5 5 -5 3 0 5 2 5 5 0 3 -2 5 -5 5 -3 0 -5 -2 -5
-5z" />
    <path d="M1740 3645 c0 -3 2 -5 5 -5 3 0 5 2 5 5 0 3 -2 5 -5 5 -3 0 -5 -2 -5
-5z" />
    <path d="M2680 2175 c0 -3 2 -5 5 -5 3 0 5 2 5 5 0 3 -2 5 -5 5 -3 0 -5 -2 -5
-5z" />
    <path d="M530 2165 c0 -3 2 -5 5 -5 3 0 5 2 5 5 0 3 -2 5 -5 5 -3 0 -5 -2 -5
-5z" />
    <path d="M1410 2165 c0 -3 2 -5 5 -5 3 0 5 2 5 5 0 3 -2 5 -5 5 -3 0 -5 -2 -5
-5z" />
    <path d="M1812 2140 l0 -35 5 18 c2 9 2 25 0 35 l-5 17 0 -35z" />
    <path d="M2855 2120 c3 -5 8 -10 11 -10 3 0 2 5 -1 10 -3 6 -8 10 -11 10 -3 0
-2 -4 1 -10z" />
    <path d="M2650 2105 c0 -3 2 -5 5 -5 3 0 5 2 5 5 0 3 -2 5 -5 5 -3 0 -5 -2 -5
-5z" />
    <path d="M803 2025 l0 -80 4 43 c2 23 2 59 0 80 l-4 37 0 -80z" />
    <path d="M1870 2095 c0 -3 2 -5 5 -5 3 0 5 2 5 5 0 3 -2 5 -5 5 -3 0 -5 -2 -5
-5z" />
    <path d="M2734 2078 l-7 -11 11 7 c7 4 12 9 12 12 0 8 -9 4 -16 -8z" />
    <path d="M2775 2060 c3 -5 8 -10 11 -10 3 0 2 5 -1 10 -3 6 -8 10 -11 10 -3 0
-2 -4 1 -10z" />
    <path d="M2885 2040 c3 -5 8 -10 11 -10 3 0 2 5 -1 10 -3 6 -8 10 -11 10 -3 0
-2 -4 1 -10z" />
    <path d="M2620 2015 c0 -3 2 -5 5 -5 3 0 5 2 5 5 0 3 -2 5 -5 5 -3 0 -5 -2 -5
-5z" />
    <path d="M2893 1935 l0 -60 4 33 c2 18 2 45 0 60 l-4 27 0 -60z" />
    <path d="M1812 1900 l0 -35 5 18 c2 9 2 25 0 35 l-5 17 0 -35z" />
    <path d="M790 1905 c0 -3 2 -5 5 -5 3 0 5 2 5 5 0 3 -2 5 -5 5 -3 0 -5 -2 -5
-5z" />
    <path d="M530 1875 c0 -3 2 -5 5 -5 3 0 5 2 5 5 0 3 -2 5 -5 5 -3 0 -5 -2 -5
-5z" />
    <path d="M720 1865 c0 -3 2 -5 5 -5 3 0 5 2 5 5 0 3 -2 5 -5 5 -3 0 -5 -2 -5
-5z" />
    <path d="M2023 1863 l7 -6 7 6 6 7 -13 0 -13 0 6 -7z" />
    <path d="M2273 1863 l7 -6 7 6 6 7 -13 0 -13 0 6 -7z" />
    <path d="M3323 1863 l7 -6 7 6 6 7 -13 0 -13 0 6 -7z" />
    <path d="M1680 1555 c0 -3 2 -5 5 -5 3 0 5 2 5 5 0 3 -2 5 -5 5 -3 0 -5 -2 -5
-5z" />
    <path d="M3790 1555 c0 -3 2 -5 5 -5 3 0 5 2 5 5 0 3 -2 5 -5 5 -3 0 -5 -2 -5
-5z" />
    <path d="M4130 1555 c0 -3 2 -5 5 -5 3 0 5 2 5 5 0 3 -2 5 -5 5 -3 0 -5 -2 -5
-5z" />
    <path d="M530 1545 c0 -3 2 -5 5 -5 3 0 5 2 5 5 0 3 -2 5 -5 5 -3 0 -5 -2 -5
-5z" />
    <path d="M1480 1545 c0 -3 2 -5 5 -5 3 0 5 2 5 5 0 3 -2 5 -5 5 -3 0 -5 -2 -5
-5z" />
    <path d="M2390 1545 c0 -3 2 -5 5 -5 3 0 5 2 5 5 0 3 -2 5 -5 5 -3 0 -5 -2 -5
-5z" />
    <path d="M4090 1535 c0 -3 2 -5 5 -5 3 0 5 2 5 5 0 3 -2 5 -5 5 -3 0 -5 -2 -5
-5z" />
    <path d="M2090 1525 c0 -3 2 -5 5 -5 3 0 5 2 5 5 0 3 -2 5 -5 5 -3 0 -5 -2 -5
-5z" />
    <path d="M650 1515 c0 -3 2 -5 5 -5 3 0 5 2 5 5 0 3 -2 5 -5 5 -3 0 -5 -2 -5
-5z" />
    <path d="M720 1515 c0 -3 2 -5 5 -5 3 0 5 2 5 5 0 3 -2 5 -5 5 -3 0 -5 -2 -5
-5z" />
    <path d="M2180 1515 c0 -3 2 -5 5 -5 3 0 5 2 5 5 0 3 -2 5 -5 5 -3 0 -5 -2 -5
-5z" />
    <path d="M710 1495 c0 -3 2 -5 5 -5 3 0 5 2 5 5 0 3 -2 5 -5 5 -3 0 -5 -2 -5
-5z" />
    <path d="M2619 1483 l-14 -18 18 14 c16 13 21 21 13 21 -2 0 -10 -8 -17 -17z" />
    <path d="M3750 1491 c0 -5 5 -13 10 -16 l10 -6 0 10 c0 5 -4 13 -10 16 l-10 6
0 -10z" />
    <path d="M1580 1485 c0 -3 2 -5 5 -5 3 0 5 2 5 5 0 3 -2 5 -5 5 -3 0 -5 -2 -5
-5z" />
    <path d="M3370 1475 c0 -3 2 -5 5 -5 3 0 5 2 5 5 0 3 -2 5 -5 5 -3 0 -5 -2 -5
-5z" />
    <path d="M1050 1465 c0 -3 2 -5 5 -5 3 0 5 2 5 5 0 3 -2 5 -5 5 -3 0 -5 -2 -5
-5z" />
    <path d="M2060 1455 c0 -3 2 -5 5 -5 3 0 5 2 5 5 0 3 -2 5 -5 5 -3 0 -5 -2 -5
-5z" />
    <path d="M1285 1440 c3 -5 8 -10 11 -10 3 0 2 5 -1 10 -3 6 -8 10 -11 10 -3 0
-2 -4 1 -10z" />
    <path d="M1725 1439 c-4 -6 -5 -12 -2 -15 2 -3 7 2 10 11 7 17 1 20 -8 4z" />
    <path d="M2030 1445 c0 -3 2 -5 5 -5 3 0 5 2 5 5 0 3 -2 5 -5 5 -3 0 -5 -2 -5
-5z" />
    <path d="M1295 1410 c3 -5 8 -10 11 -10 3 0 2 5 -1 10 -3 6 -8 10 -11 10 -3 0
-2 -4 1 -10z" />
    <path d="M1740 1400 l0 -13 7 6 6 7 -6 7 -7 6 0 -13z" />
    <path d="M3720 1390 l0 -13 7 6 6 7 -6 7 -7 6 0 -13z" />
    <path d="M650 1375 c0 -3 2 -5 5 -5 3 0 5 2 5 5 0 3 -2 5 -5 5 -3 0 -5 -2 -5
-5z" />
    <path d="M670 1355 c0 -3 2 -5 5 -5 3 0 5 2 5 5 0 3 -2 5 -5 5 -3 0 -5 -2 -5
-5z" />
    <path d="M700 1355 c0 -3 2 -5 5 -5 3 0 5 2 5 5 0 3 -2 5 -5 5 -3 0 -5 -2 -5
-5z" />
    <path d="M1650 1345 c0 -3 2 -5 5 -5 3 0 5 2 5 5 0 3 -2 5 -5 5 -3 0 -5 -2 -5
-5z" />
    <path d="M2113 1300 l0 -55 4 28 c2 15 2 39 0 55 l-4 27 0 -55z" />
    <path d="M3770 1330 l0 -13 7 6 6 7 -6 7 -7 6 0 -13z" />
    <path d="M3370 1325 c0 -3 2 -5 5 -5 3 0 5 2 5 5 0 3 -2 5 -5 5 -3 0 -5 -2 -5
-5z" />
    <path d="M4070 1305 c0 -3 2 -5 5 -5 3 0 5 2 5 5 0 3 -2 5 -5 5 -3 0 -5 -2 -5
-5z" />
    <path d="M530 1255 c0 -3 2 -5 5 -5 3 0 5 2 5 5 0 3 -2 5 -5 5 -3 0 -5 -2 -5
-5z" />
    <path d="M1480 1255 c0 -3 2 -5 5 -5 3 0 5 2 5 5 0 3 -2 5 -5 5 -3 0 -5 -2 -5
-5z" />
    <path d="M2390 1255 c0 -3 2 -5 5 -5 3 0 5 2 5 5 0 3 -2 5 -5 5 -3 0 -5 -2 -5
-5z" />
    <path d="M4110 1255 c0 -3 2 -5 5 -5 3 0 5 2 5 5 0 3 -2 5 -5 5 -3 0 -5 -2 -5
-5z" />
    <path d="M1030 1245 c0 -3 2 -5 5 -5 3 0 5 2 5 5 0 3 -2 5 -5 5 -3 0 -5 -2 -5
-5z" />
    <path d="M1113 1243 l7 -6 7 6 6 7 -13 0 -13 0 6 -7z" />
    <path d="M1203 1243 l7 -6 7 6 6 7 -13 0 -13 0 6 -7z" />
    <path d="M1753 1243 l7 -6 7 6 6 7 -13 0 -13 0 6 -7z" />
    <path d="M1933 1243 l7 -6 7 6 6 7 -13 0 -13 0 6 -7z" />
    <path d="M2963 1243 l7 -6 7 6 6 7 -13 0 -13 0 6 -7z" />
    <path d="M3700 1245 c0 -3 2 -5 5 -5 3 0 5 2 5 5 0 3 -2 5 -5 5 -3 0 -5 -2 -5
-5z" />
    <path d="M4150 1245 c0 -3 2 -5 5 -5 3 0 5 2 5 5 0 3 -2 5 -5 5 -3 0 -5 -2 -5
-5z" />
  </g>
  <g transform="translate(0.000000,500.000000) scale(0.100000,-0.100000)" fill="#fef9f1" stroke="none">
    <path d="M713 2183 l7 -6 7 6 6 7 -13 0 -13 0 6 -7z" />
    <path d="M972 2140 l0 -35 5 18 c2 9 2 25 0 35 l-5 17 0 -35z" />
    <path d="M980 2095 c0 -3 2 -5 5 -5 3 0 5 2 5 5 0 3 -2 5 -5 5 -3 0 -5 -2 -5
-5z" />
    <path d="M2450 2095 c0 -3 2 -5 5 -5 3 0 5 2 5 5 0 3 -2 5 -5 5 -3 0 -5 -2 -5
-5z" />
    <path d="M2880 2065 c0 -3 2 -5 5 -5 3 0 5 2 5 5 0 3 -2 5 -5 5 -3 0 -5 -2 -5
-5z" />
    <path d="M2755 2030 l-30 -8 33 -1 32 -1 0 10 c0 6 -1 9 -2 9 -2 -1 -16 -5
-33 -9z" />
    <path d="M2890 2035 c0 -3 2 -5 5 -5 3 0 5 2 5 5 0 3 -2 5 -5 5 -3 0 -5 -2 -5
-5z" />
    <path d="M1643 1950 l0 -75 4 38 c2 20 2 54 0 75 l-4 37 0 -75z" />
    <path d="M1200 1930 l0 -13 7 6 6 7 -6 7 -7 6 0 -13z" />
    <path d="M972 1905 l0 -30 5 18 c2 9 2 23 0 30 l-5 12 0 -30z" />
    <path d="M1385 1890 c3 -5 8 -10 11 -10 3 0 2 5 -1 10 -3 6 -8 10 -11 10 -3 0
-2 -4 1 -10z" />
    <path d="M3330 1865 c0 -3 2 -5 5 -5 3 0 5 2 5 5 0 3 -2 5 -5 5 -3 0 -5 -2 -5
-5z" />
    <path d="M2110 1565 c0 -3 2 -5 5 -5 3 0 5 2 5 5 0 3 -2 5 -5 5 -3 0 -5 -2 -5
-5z" />
    <path d="M2632 1520 l0 -35 5 18 c2 9 2 25 0 35 l-5 17 0 -35z" />
    <path d="M1720 1535 c0 -3 2 -5 5 -5 3 0 5 2 5 5 0 3 -2 5 -5 5 -3 0 -5 -2 -5
-5z" />
    <path d="M3755 1490 c3 -5 8 -10 11 -10 3 0 2 5 -1 10 -3 6 -8 10 -11 10 -3 0
-2 -4 1 -10z" />
    <path d="M1620 1475 c0 -3 2 -5 5 -5 3 0 5 2 5 5 0 3 -2 5 -5 5 -3 0 -5 -2 -5
-5z" />
    <path d="M2170 1475 c0 -3 2 -5 5 -5 3 0 5 2 5 5 0 3 -2 5 -5 5 -3 0 -5 -2 -5
-5z" />
    <path d="M2495 1469 c-4 -6 -5 -12 -2 -15 2 -3 7 2 10 11 7 17 1 20 -8 4z" />
    <path d="M1170 1465 c0 -3 2 -5 5 -5 3 0 5 2 5 5 0 3 -2 5 -5 5 -3 0 -5 -2 -5
-5z" />
    <path d="M1280 1465 c0 -3 2 -5 5 -5 3 0 5 2 5 5 0 3 -2 5 -5 5 -3 0 -5 -2 -5
-5z" />
    <path d="M4063 1400 l0 -75 4 38 c2 20 2 54 0 75 l-4 37 0 -75z" />
    <path d="M1180 1435 c0 -3 2 -5 5 -5 3 0 5 2 5 5 0 3 -2 5 -5 5 -3 0 -5 -2 -5
-5z" />
    <path d="M1148 1403 c12 -2 30 -2 40 0 l17 5 -40 -1 -40 0 23 -4z" />
    <path d="M1300 1405 c0 -3 2 -5 5 -5 3 0 5 2 5 5 0 3 -2 5 -5 5 -3 0 -5 -2 -5
-5z" />
    <path d="M1740 1405 c0 -3 2 -5 5 -5 3 0 5 2 5 5 0 3 -2 5 -5 5 -3 0 -5 -2 -5
-5z" />
    <path d="M743 1325 l0 -70 4 38 c2 20 2 52 0 70 l-4 32 0 -70z" />
    <path d="M2491 1344 l1 -19 5 13 5 13 -6 6 -6 6 1 -19z" />
    <path d="M2632 1285 l0 -30 5 18 c2 9 2 23 0 30 l-5 12 0 -30z" />
    <path d="M1760 1245 c0 -3 2 -5 5 -5 3 0 5 2 5 5 0 3 -2 5 -5 5 -3 0 -5 -2 -5
-5z" />
    <path d="M1930 1245 c0 -3 2 -5 5 -5 3 0 5 2 5 5 0 3 -2 5 -5 5 -3 0 -5 -2 -5
-5z" />
  </g>
  <g transform="translate(0.000000,500.000000) scale(0.100000,-0.100000)" fill="#fef3df" stroke="none">
    <path d="M710 2185 c0 -3 2 -5 5 -5 3 0 5 2 5 5 0 3 -2 5 -5 5 -3 0 -5 -2 -5
-5z" />
    <path d="M1460 2185 c0 -3 2 -5 5 -5 3 0 5 2 5 5 0 3 -2 5 -5 5 -3 0 -5 -2 -5
-5z" />
    <path d="M2020 2185 c0 -3 2 -5 5 -5 3 0 5 2 5 5 0 3 -2 5 -5 5 -3 0 -5 -2 -5
-5z" />
    <path d="M2820 2185 c0 -3 2 -5 5 -5 3 0 5 2 5 5 0 3 -2 5 -5 5 -3 0 -5 -2 -5
-5z" />
    <path d="M3080 2185 c0 -3 2 -5 5 -5 3 0 5 2 5 5 0 3 -2 5 -5 5 -3 0 -5 -2 -5
-5z" />
    <path d="M3160 2185 c0 -3 2 -5 5 -5 3 0 5 2 5 5 0 3 -2 5 -5 5 -3 0 -5 -2 -5
-5z" />
    <path d="M1202 2140 l0 -35 5 18 c2 9 2 25 0 35 l-5 17 0 -35z" />
    <path d="M1612 2140 l0 -35 5 18 c2 9 2 25 0 35 l-5 17 0 -35z" />
    <path d="M2462 2140 l0 -35 5 18 c2 9 2 25 0 35 l-5 17 0 -35z" />
    <path d="M1370 2125 c0 -3 2 -5 5 -5 3 0 5 2 5 5 0 3 -2 5 -5 5 -3 0 -5 -2 -5
-5z" />
    <path d="M2860 2115 c0 -3 2 -5 5 -5 3 0 5 2 5 5 0 3 -2 5 -5 5 -3 0 -5 -2 -5
-5z" />
    <path d="M1190 2095 c0 -3 2 -5 5 -5 3 0 5 2 5 5 0 3 -2 5 -5 5 -3 0 -5 -2 -5
-5z" />
    <path d="M1600 2095 c0 -3 2 -5 5 -5 3 0 5 2 5 5 0 3 -2 5 -5 5 -3 0 -5 -2 -5
-5z" />
    <path d="M2740 2085 c0 -3 2 -5 5 -5 3 0 5 2 5 5 0 3 -2 5 -5 5 -3 0 -5 -2 -5
-5z" />
    <path d="M2770 2065 c0 -3 2 -5 5 -5 3 0 5 2 5 5 0 3 -2 5 -5 5 -3 0 -5 -2 -5
-5z" />
    <path d="M2780 2035 c0 -3 2 -5 5 -5 3 0 5 2 5 5 0 3 -2 5 -5 5 -3 0 -5 -2 -5
-5z" />
    <path d="M3234 2028 l-7 -11 11 7 c7 4 12 9 12 12 0 8 -9 4 -16 -8z" />
    <path d="M3320 2035 c0 -3 2 -5 5 -5 3 0 5 2 5 5 0 3 -2 5 -5 5 -3 0 -5 -2 -5
-5z" />
    <path d="M1810 1945 c0 -3 2 -5 5 -5 3 0 5 2 5 5 0 3 -2 5 -5 5 -3 0 -5 -2 -5
-5z" />
    <path d="M1202 1900 l0 -35 5 18 c2 9 2 25 0 35 l-5 17 0 -35z" />
    <path d="M1390 1885 c0 -3 2 -5 5 -5 3 0 5 2 5 5 0 3 -2 5 -5 5 -3 0 -5 -2 -5
-5z" />
    <path d="M770 1875 c0 -3 2 -5 5 -5 3 0 5 2 5 5 0 3 -2 5 -5 5 -3 0 -5 -2 -5
-5z" />
    <path d="M750 1865 c0 -3 2 -5 5 -5 3 0 5 2 5 5 0 3 -2 5 -5 5 -3 0 -5 -2 -5
-5z" />
    <path d="M2030 1865 c0 -3 2 -5 5 -5 3 0 5 2 5 5 0 3 -2 5 -5 5 -3 0 -5 -2 -5
-5z" />
    <path d="M2270 1865 c0 -3 2 -5 5 -5 3 0 5 2 5 5 0 3 -2 5 -5 5 -3 0 -5 -2 -5
-5z" />
    <path d="M620 1565 c0 -3 2 -5 5 -5 3 0 5 2 5 5 0 3 -2 5 -5 5 -3 0 -5 -2 -5
-5z" />
    <path d="M750 1565 c0 -3 2 -5 5 -5 3 0 5 2 5 5 0 3 -2 5 -5 5 -3 0 -5 -2 -5
-5z" />
    <path d="M1230 1565 c0 -3 2 -5 5 -5 3 0 5 2 5 5 0 3 -2 5 -5 5 -3 0 -5 -2 -5
-5z" />
    <path d="M1660 1565 c0 -3 2 -5 5 -5 3 0 5 2 5 5 0 3 -2 5 -5 5 -3 0 -5 -2 -5
-5z" />
    <path d="M1934 1558 l-7 -11 11 7 c7 4 12 9 12 12 0 8 -9 4 -16 -8z" />
    <path d="M3040 1565 c0 -3 2 -5 5 -5 3 0 5 2 5 5 0 3 -2 5 -5 5 -3 0 -5 -2 -5
-5z" />
    <path d="M3220 1565 c0 -3 2 -5 5 -5 3 0 5 2 5 5 0 3 -2 5 -5 5 -3 0 -5 -2 -5
-5z" />
    <path d="M3620 1565 c0 -3 2 -5 5 -5 3 0 5 2 5 5 0 3 -2 5 -5 5 -3 0 -5 -2 -5
-5z" />
    <path d="M3680 1565 c0 -3 2 -5 5 -5 3 0 5 2 5 5 0 3 -2 5 -5 5 -3 0 -5 -2 -5
-5z" />
    <path d="M4153 1563 l7 -6 7 6 6 7 -13 0 -13 0 6 -7z" />
    <path d="M4110 1555 c0 -3 2 -5 5 -5 3 0 5 2 5 5 0 3 -2 5 -5 5 -3 0 -5 -2 -5
-5z" />
    <path d="M730 1545 c0 -3 2 -5 5 -5 3 0 5 2 5 5 0 3 -2 5 -5 5 -3 0 -5 -2 -5
-5z" />
    <path d="M2200 1545 c0 -3 2 -5 5 -5 3 0 5 2 5 5 0 3 -2 5 -5 5 -3 0 -5 -2 -5
-5z" />
    <path d="M1070 1535 c0 -3 2 -5 5 -5 3 0 5 2 5 5 0 3 -2 5 -5 5 -3 0 -5 -2 -5
-5z" />
    <path d="M1260 1515 c0 -3 2 -5 5 -5 3 0 5 2 5 5 0 3 -2 5 -5 5 -3 0 -5 -2 -5
-5z" />
    <path d="M2070 1495 c0 -3 2 -5 5 -5 3 0 5 2 5 5 0 3 -2 5 -5 5 -3 0 -5 -2 -5
-5z" />
    <path d="M3750 1495 c0 -3 2 -5 5 -5 3 0 5 2 5 5 0 3 -2 5 -5 5 -3 0 -5 -2 -5
-5z" />
    <path d="M680 1475 c0 -3 2 -5 5 -5 3 0 5 2 5 5 0 3 -2 5 -5 5 -3 0 -5 -2 -5
-5z" />
    <path d="M2528 1473 c17 -2 47 -2 65 0 l32 4 -65 0 -65 0 33 -4z" />
    <path d="M2790 1475 c0 -3 2 -5 5 -5 3 0 5 2 5 5 0 3 -2 5 -5 5 -3 0 -5 -2 -5
-5z" />
    <path d="M1730 1445 c0 -3 2 -5 5 -5 3 0 5 2 5 5 0 3 -2 5 -5 5 -3 0 -5 -2 -5
-5z" />
    <path d="M1290 1435 c0 -3 2 -5 5 -5 3 0 5 2 5 5 0 3 -2 5 -5 5 -3 0 -5 -2 -5
-5z" />
    <path d="M1720 1425 c0 -3 2 -5 5 -5 3 0 5 2 5 5 0 3 -2 5 -5 5 -3 0 -5 -2 -5
-5z" />
    <path d="M1130 1405 c0 -3 2 -5 5 -5 3 0 5 2 5 5 0 3 -2 5 -5 5 -3 0 -5 -2 -5
-5z" />
    <path d="M1190 1405 c0 -3 2 -5 5 -5 3 0 5 2 5 5 0 3 -2 5 -5 5 -3 0 -5 -2 -5
-5z" />
    <path d="M740 1390 l0 -13 7 6 6 7 -6 7 -7 6 0 -13z" />
    <path d="M2210 1395 c0 -3 2 -5 5 -5 3 0 5 2 5 5 0 3 -2 5 -5 5 -3 0 -5 -2 -5
-5z" />
    <path d="M3720 1385 c0 -3 2 -5 5 -5 3 0 5 2 5 5 0 3 -2 5 -5 5 -3 0 -5 -2 -5
-5z" />
    <path d="M720 1365 c0 -3 2 -5 5 -5 3 0 5 2 5 5 0 3 -2 5 -5 5 -3 0 -5 -2 -5
-5z" />
    <path d="M2620 1325 c0 -3 2 -5 5 -5 3 0 5 2 5 5 0 3 -2 5 -5 5 -3 0 -5 -2 -5
-5z" />
    <path d="M3770 1325 c0 -3 2 -5 5 -5 3 0 5 2 5 5 0 3 -2 5 -5 5 -3 0 -5 -2 -5
-5z" />
    <path d="M4070 1285 c0 -3 2 -5 5 -5 3 0 5 2 5 5 0 3 -2 5 -5 5 -3 0 -5 -2 -5
-5z" />
    <path d="M1580 1255 c0 -3 2 -5 5 -5 3 0 5 2 5 5 0 3 -2 5 -5 5 -3 0 -5 -2 -5
-5z" />
    <path d="M1120 1245 c0 -3 2 -5 5 -5 3 0 5 2 5 5 0 3 -2 5 -5 5 -3 0 -5 -2 -5
-5z" />
    <path d="M1200 1245 c0 -3 2 -5 5 -5 3 0 5 2 5 5 0 3 -2 5 -5 5 -3 0 -5 -2 -5
-5z" />
    <path d="M2970 1245 c0 -3 2 -5 5 -5 3 0 5 2 5 5 0 3 -2 5 -5 5 -3 0 -5 -2 -5
-5z" />
  </g>
  <g transform="translate(0.000000,500.000000) scale(0.100000,-0.100000)" fill="#b697c5" stroke="none">
    <path d="M583 3853 l7 -6 7 6 6 7 -13 0 -13 0 6 -7z" />
    <path d="M790 3670 l0 -13 7 6 6 7 -6 7 -7 6 0 -13z" />
    <path d="M703 3573 l7 -6 7 6 6 7 -13 0 -13 0 6 -7z" />
    <path d="M600 3025 c0 -3 2 -5 5 -5 3 0 5 2 5 5 0 3 -2 5 -5 5 -3 0 -5 -2 -5
-5z" />
    <path d="M1410 3025 c0 -3 2 -5 5 -5 3 0 5 2 5 5 0 3 -2 5 -5 5 -3 0 -5 -2 -5
-5z" />
    <path d="M1674 2945 l-1 -90 4 42 c2 23 2 64 0 90 l-3 48 0 -90z" />
    <path d="M2120 3025 c0 -3 2 -5 5 -5 3 0 5 2 5 5 0 3 -2 5 -5 5 -3 0 -5 -2 -5
-5z" />
    <path d="M2720 3026 c0 -2 7 -7 16 -10 l15 -6 -6 10 c-6 10 -25 14 -25 6z" />
    <path d="M3400 3025 c0 -3 2 -5 5 -5 3 0 5 2 5 5 0 3 -2 5 -5 5 -3 0 -5 -2 -5
-5z" />
    <path d="M3850 3026 c0 -2 7 -7 16 -10 l15 -6 -6 10 c-6 10 -25 14 -25 6z" />
    <path d="M974 2998 l-7 -11 11 7 c12 7 16 16 8 16 -3 0 -8 -5 -12 -12z" />
    <path d="M1185 3000 c3 -5 8 -10 11 -10 3 0 2 5 -1 10 -3 6 -8 10 -11 10 -3 0
-2 -4 1 -10z" />
    <path d="M2760 2995 c0 -3 2 -5 5 -5 3 0 5 2 5 5 0 3 -2 5 -5 5 -3 0 -5 -2 -5
-5z" />
    <path d="M3890 2995 c0 -3 2 -5 5 -5 3 0 5 2 5 5 0 3 -2 5 -5 5 -3 0 -5 -2 -5
-5z" />
    <path d="M2680 2950 l0 -13 7 6 6 7 -6 7 -7 6 0 -13z" />
    <path d="M3810 2950 l0 -13 7 6 6 7 -6 7 -7 6 0 -13z" />
    <path d="M2274 2860 l0 -95 3 48 c2 26 2 68 0 95 l-3 47 0 -95z" />
    <path d="M1562 2926 c7 -8 15 -12 17 -11 5 6 -10 25 -20 25 l-10 0 13 -14z" />
    <path d="M3365 2840 l-6 -10 10 0 c6 0 11 5 11 10 0 6 -2 10 -4 10 -3 0 -8 -4
-11 -10z" />
    <path d="M1660 2810 l0 -13 7 6 6 7 -6 7 -7 6 0 -13z" />
    <path d="M1420 2800 l0 -13 7 6 6 7 -6 7 -7 6 0 -13z" />
    <path d="M2760 2795 c0 -3 2 -5 5 -5 3 0 5 2 5 5 0 3 -2 5 -5 5 -3 0 -5 -2 -5
-5z" />
    <path d="M3890 2795 c0 -3 2 -5 5 -5 3 0 5 2 5 5 0 3 -2 5 -5 5 -3 0 -5 -2 -5
-5z" />
    <path d="M1560 2780 l0 -13 7 6 6 7 -6 7 -7 6 0 -13z" />
    <path d="M997 2769 l13 -13 5 6 6 6 -18 6 -18 7 12 -12z" />
    <path d="M1160 2770 l-15 -10 12 0 c6 0 15 5 18 10 8 12 4 12 -15 0z" />
    <path d="M1430 2775 c0 -3 2 -5 5 -5 3 0 5 2 5 5 0 3 -2 5 -5 5 -3 0 -5 -2 -5
-5z" />
    <path d="M3424 2768 l-7 -11 11 7 c12 7 16 16 8 16 -3 0 -8 -5 -12 -12z" />
    <path d="M1078 2753 c6 -2 18 -2 25 0 l12 5 -25 0 -25 0 13 -5z" />
    <path d="M2648 2753 c6 -2 18 -2 25 0 l12 5 -25 0 -25 0 13 -5z" />
    <path d="M3778 2753 c6 -2 18 -2 25 0 l12 5 -25 0 -25 0 13 -5z" />
  </g>
  <g transform="translate(0.000000,500.000000) scale(0.100000,-0.100000)" fill="#d0cdd2" stroke="none">
    <path d="M1118 3863 c12 -2 30 -2 40 0 l17 5 -40 -1 -40 0 23 -4z" />
    <path d="M1183 3853 l7 -6 7 6 6 7 -13 0 -13 0 6 -7z" />
    <path d="M1235 3820 c10 -11 20 -20 23 -20 3 0 -3 9 -13 20 -10 11 -20 20 -23
20 -3 0 3 -9 13 -20z" />
    <path d="M1004 3798 l-7 -11 11 7 c7 4 12 9 12 12 0 8 -9 4 -16 -8z" />
    <path d="M1260 3785 c0 -3 2 -5 5 -5 3 0 5 2 5 5 0 3 -2 5 -5 5 -3 0 -5 -2 -5
-5z" />
    <path d="M990 3775 c0 -3 2 -5 5 -5 3 0 5 2 5 5 0 3 -2 5 -5 5 -3 0 -5 -2 -5
-5z" />
    <path d="M1270 3760 l0 -13 7 6 6 7 -6 7 -7 6 0 -13z" />
    <path d="M981 3734 l1 -19 5 13 5 13 -6 6 -6 6 1 -19z" />
    <path d="M981 3694 l1 -19 5 13 5 13 -6 6 -6 6 1 -19z" />
    <path d="M1270 3670 l0 -13 7 6 6 7 -6 7 -7 6 0 -13z" />
    <path d="M990 3660 l0 -13 7 6 6 7 -6 7 -7 6 0 -13z" />
    <path d="M1260 3645 c0 -3 2 -5 5 -5 3 0 5 2 5 5 0 3 -2 5 -5 5 -3 0 -5 -2 -5
-5z" />
    <path d="M1000 3637 c0 -2 15 -16 33 -33 l32 -29 -29 33 c-28 30 -36 37 -36
29z" />
    <path d="M1234 3608 l-19 -23 23 19 c21 18 27 26 19 26 -2 0 -12 -10 -23 -22z" />
    <path d="M1185 3580 l-20 -9 17 0 17 -1 6 10 c7 11 7 11 -20 0z" />
    <path d="M1073 3573 l7 -6 7 6 6 7 -13 0 -13 0 6 -7z" />
    <path d="M1123 3563 c9 -2 23 -2 30 0 l12 5 -30 0 -30 0 18 -5z" />
    <path d="M4100 2996 l0 -35 8 -4 7 -5 0 39 0 39 -7 0 -8 0 0 -34z" />
    <path d="M4258 3023 l13 -5 6 6 6 6 -19 -1 -19 -1 13 -5z" />
    <path d="M4313 2945 l0 -50 4 28 c2 15 2 37 0 50 l-4 22 0 -50z" />
    <path d="M4213 2953 l7 -6 7 6 6 7 -13 0 -13 0 6 -7z" />
    <path d="M4213 2933 l7 -6 7 6 6 7 -13 0 -13 0 6 -7z" />
    <path d="M4133 2915 l-5 -16 6 -6 6 -6 0 16 0 16 23 4 22 4 -23 2 -23 1 -6
-15z" />
    <path d="M4294 2878 l-7 -11 11 7 c7 4 12 9 12 12 0 8 -9 4 -16 -8z" />
    <path d="M4140 2860 l0 -13 7 6 6 7 -6 7 -7 6 0 -13z" />
    <path d="M4258 2863 l13 -5 6 6 6 6 -19 -1 -19 -1 13 -5z" />
    <path d="M4188 2853 c6 -2 18 -2 25 0 l12 5 -25 0 -25 0 13 -5z" />
    <path d="M4134 2826 c-3 -8 -4 -27 -1 -43 l4 -28 2 39 1 38 45 -4 45 -3 0 7 0
8 -45 0 -46 0 -5 -14z" />
    <path d="M4220 2765 c0 -3 2 -5 5 -5 3 0 5 2 5 5 0 3 -2 5 -5 5 -3 0 -5 -2 -5
-5z" />
  </g>
  <g transform="translate(0.000000,500.000000) scale(0.100000,-0.100000)" fill="#dfd5e4" stroke="none">
    <path d="M1100 3865 c0 -3 2 -5 5 -5 3 0 5 2 5 5 0 3 -2 5 -5 5 -3 0 -5 -2 -5
-5z" />
    <path d="M1073 3853 l7 -6 7 6 6 7 -13 0 -13 0 6 -7z" />
    <path d="M1044 3838 l-7 -11 11 7 c7 4 12 9 12 12 0 8 -9 4 -16 -8z" />
    <path d="M1215 3840 c3 -5 8 -10 11 -10 3 0 2 5 -1 10 -3 6 -8 10 -11 10 -3 0
-2 -4 1 -10z" />
    <path d="M1250 3805 c0 -3 2 -5 5 -5 3 0 5 2 5 5 0 3 -2 5 -5 5 -3 0 -5 -2 -5
-5z" />
    <path d="M510 3785 c0 -3 2 -5 5 -5 3 0 5 2 5 5 0 3 -2 5 -5 5 -3 0 -5 -2 -5
-5z" />
    <path d="M980 3685 c0 -3 2 -5 5 -5 3 0 5 2 5 5 0 3 -2 5 -5 5 -3 0 -5 -2 -5
-5z" />
    <path d="M790 3665 c0 -3 2 -5 5 -5 3 0 5 2 5 5 0 3 -2 5 -5 5 -3 0 -5 -2 -5
-5z" />
    <path d="M510 3645 c0 -3 2 -5 5 -5 3 0 5 2 5 5 0 3 -2 5 -5 5 -3 0 -5 -2 -5
-5z" />
    <path d="M1000 3635 c0 -3 2 -5 5 -5 3 0 5 2 5 5 0 3 -2 5 -5 5 -3 0 -5 -2 -5
-5z" />
    <path d="M764 3618 l-7 -11 11 7 c12 7 16 16 8 16 -3 0 -8 -5 -12 -12z" />
    <path d="M1220 3595 c0 -3 2 -5 5 -5 3 0 5 2 5 5 0 3 -2 5 -5 5 -3 0 -5 -2 -5
-5z" />
    <path d="M1050 3586 c0 -2 7 -7 16 -10 l15 -6 -6 10 c-6 10 -25 14 -25 6z" />
    <path d="M620 3565 c0 -3 2 -5 5 -5 3 0 5 2 5 5 0 3 -2 5 -5 5 -3 0 -5 -2 -5
-5z" />
    <path d="M673 3563 l7 -6 7 6 6 7 -13 0 -13 0 6 -7z" />
    <path d="M2613 3033 l7 -6 7 6 6 7 -13 0 -13 0 6 -7z" />
    <path d="M2690 3035 c0 -3 2 -5 5 -5 3 0 5 2 5 5 0 3 -2 5 -5 5 -3 0 -5 -2 -5
-5z" />
    <path d="M3743 3033 l7 -6 7 6 6 7 -13 0 -13 0 6 -7z" />
    <path d="M3820 3035 c0 -3 2 -5 5 -5 3 0 5 2 5 5 0 3 -2 5 -5 5 -3 0 -5 -2 -5
-5z" />
    <path d="M1670 3025 c0 -3 2 -5 5 -5 3 0 5 2 5 5 0 3 -2 5 -5 5 -3 0 -5 -2 -5
-5z" />
    <path d="M2560 3015 c0 -3 2 -5 5 -5 3 0 5 2 5 5 0 3 -2 5 -5 5 -3 0 -5 -2 -5
-5z" />
    <path d="M3690 3015 c0 -3 2 -5 5 -5 3 0 5 2 5 5 0 3 -2 5 -5 5 -3 0 -5 -2 -5
-5z" />
    <path d="M970 2995 c0 -3 2 -5 5 -5 3 0 5 2 5 5 0 3 -2 5 -5 5 -3 0 -5 -2 -5
-5z" />
    <path d="M1190 2995 c0 -3 2 -5 5 -5 3 0 5 2 5 5 0 3 -2 5 -5 5 -3 0 -5 -2 -5
-5z" />
    <path d="M2770 2970 l0 -13 7 6 6 7 -6 7 -7 6 0 -13z" />
    <path d="M3900 2970 l0 -13 7 6 6 7 -6 7 -7 6 0 -13z" />
    <path d="M2330 2955 c0 -3 2 -5 5 -5 3 0 5 2 5 5 0 3 -2 5 -5 5 -3 0 -5 -2 -5
-5z" />
    <path d="M2630 2955 c0 -3 2 -5 5 -5 3 0 5 2 5 5 0 3 -2 5 -5 5 -3 0 -5 -2 -5
-5z" />
    <path d="M3320 2956 c0 -2 13 -6 29 -8 l30 -4 -5 8 -5 8 -25 0 c-13 0 -24 -2
-24 -4z" />
    <path d="M3760 2955 c0 -3 2 -5 5 -5 3 0 5 2 5 5 0 3 -2 5 -5 5 -3 0 -5 -2 -5
-5z" />
    <path d="M1565 2930 c3 -5 8 -10 11 -10 3 0 2 5 -1 10 -3 6 -8 10 -11 10 -3 0
-2 -4 1 -10z" />
    <path d="M4203 2933 l7 -6 7 6 6 7 -13 0 -13 0 6 -7z" />
    <path d="M4140 2925 c0 -3 2 -5 5 -5 3 0 5 2 5 5 0 3 -2 5 -5 5 -3 0 -5 -2 -5
-5z" />
    <path d="M4310 2905 c0 -3 2 -5 5 -5 3 0 5 2 5 5 0 3 -2 5 -5 5 -3 0 -5 -2 -5
-5z" />
    <path d="M4130 2895 c0 -3 2 -5 5 -5 3 0 5 2 5 5 0 3 -2 5 -5 5 -3 0 -5 -2 -5
-5z" />
    <path d="M4290 2875 c0 -3 2 -5 5 -5 3 0 5 2 5 5 0 3 -2 5 -5 5 -3 0 -5 -2 -5
-5z" />
    <path d="M4270 2865 c0 -3 2 -5 5 -5 3 0 5 2 5 5 0 3 -2 5 -5 5 -3 0 -5 -2 -5
-5z" />
    <path d="M4213 2853 l7 -6 7 6 6 7 -13 0 -13 0 6 -7z" />
    <path d="M1534 2828 l-7 -11 11 7 c12 7 16 16 8 16 -3 0 -8 -5 -12 -12z" />
    <path d="M2770 2820 l0 -13 7 6 6 7 -6 7 -7 6 0 -13z" />
    <path d="M3900 2820 l0 -13 7 6 6 7 -6 7 -7 6 0 -13z" />
    <path d="M3460 2815 c0 -3 2 -5 5 -5 3 0 5 2 5 5 0 3 -2 5 -5 5 -3 0 -5 -2 -5
-5z" />
    <path d="M1420 2795 c0 -3 2 -5 5 -5 3 0 5 2 5 5 0 3 -2 5 -5 5 -3 0 -5 -2 -5
-5z" />
    <path d="M1560 2775 c0 -3 2 -5 5 -5 3 0 5 2 5 5 0 3 -2 5 -5 5 -3 0 -5 -2 -5
-5z" />
    <path d="M1160 2765 c0 -3 2 -5 5 -5 3 0 5 2 5 5 0 3 -2 5 -5 5 -3 0 -5 -2 -5
-5z" />
    <path d="M1510 2765 c0 -3 2 -5 5 -5 3 0 5 2 5 5 0 3 -2 5 -5 5 -3 0 -5 -2 -5
-5z" />
    <path d="M2610 2755 c0 -3 2 -5 5 -5 3 0 5 2 5 5 0 3 -2 5 -5 5 -3 0 -5 -2 -5
-5z" />
    <path d="M2700 2755 c0 -3 2 -5 5 -5 3 0 5 2 5 5 0 3 -2 5 -5 5 -3 0 -5 -2 -5
-5z" />
    <path d="M3740 2755 c0 -3 2 -5 5 -5 3 0 5 2 5 5 0 3 -2 5 -5 5 -3 0 -5 -2 -5
-5z" />
    <path d="M3830 2755 c0 -3 2 -5 5 -5 3 0 5 2 5 5 0 3 -2 5 -5 5 -3 0 -5 -2 -5
-5z" />
  </g>
  <g transform="translate(0.000000,500.000000) scale(0.100000,-0.100000)" fill="#f7f5f8" stroke="none">
    <path d="M1160 3865 c0 -3 2 -5 5 -5 3 0 5 2 5 5 0 3 -2 5 -5 5 -3 0 -5 -2 -5
-5z" />
    <path d="M580 3855 c0 -3 2 -5 5 -5 3 0 5 2 5 5 0 3 -2 5 -5 5 -3 0 -5 -2 -5
-5z" />
    <path d="M1197 3849 l13 -13 5 6 6 6 -18 6 -18 7 12 -12z" />
    <path d="M735 3840 c3 -5 8 -10 11 -10 3 0 2 5 -1 10 -3 6 -8 10 -11 10 -3 0
-2 -4 1 -10z" />
    <path d="M500 3765 c0 -3 2 -5 5 -5 3 0 5 2 5 5 0 3 -2 5 -5 5 -3 0 -5 -2 -5
-5z" />
    <path d="M1282 3715 l0 -30 5 18 c2 9 2 23 0 30 l-5 12 0 -30z" />
    <path d="M800 3715 c0 -3 2 -5 5 -5 3 0 5 2 5 5 0 3 -2 5 -5 5 -3 0 -5 -2 -5
-5z" />
    <path d="M500 3665 c0 -3 2 -5 5 -5 3 0 5 2 5 5 0 3 -2 5 -5 5 -3 0 -5 -2 -5
-5z" />
    <path d="M710 3575 c0 -3 2 -5 5 -5 3 0 5 2 5 5 0 3 -2 5 -5 5 -3 0 -5 -2 -5
-5z" />
    <path d="M1190 3575 c0 -3 2 -5 5 -5 3 0 5 2 5 5 0 3 -2 5 -5 5 -3 0 -5 -2 -5
-5z" />
    <path d="M680 3565 c0 -3 2 -5 5 -5 3 0 5 2 5 5 0 3 -2 5 -5 5 -3 0 -5 -2 -5
-5z" />
    <path d="M1103 3563 l7 -6 7 6 6 7 -13 0 -13 0 6 -7z" />
    <path d="M1150 3565 c0 -3 2 -5 5 -5 3 0 5 2 5 5 0 3 -2 5 -5 5 -3 0 -5 -2 -5
-5z" />
    <path d="M4103 3023 l7 -6 7 6 6 7 -13 0 -13 0 6 -7z" />
    <path d="M4275 3020 c3 -5 8 -10 11 -10 3 0 2 5 -1 10 -3 6 -8 10 -11 10 -3 0
-2 -4 1 -10z" />
    <path d="M4305 2990 c3 -5 8 -10 11 -10 3 0 2 5 -1 10 -3 6 -8 10 -11 10 -3 0
-2 -4 1 -10z" />
    <path d="M2120 2955 c0 -3 2 -5 5 -5 3 0 5 2 5 5 0 3 -2 5 -5 5 -3 0 -5 -2 -5
-5z" />
    <path d="M2184 2860 l0 -95 3 48 c2 26 2 68 0 95 l-3 47 0 -95z" />
    <path d="M4200 2935 c0 -3 2 -5 5 -5 3 0 5 2 5 5 0 3 -2 5 -5 5 -3 0 -5 -2 -5
-5z" />
    <path d="M1570 2925 c0 -3 2 -5 5 -5 3 0 5 2 5 5 0 3 -2 5 -5 5 -3 0 -5 -2 -5
-5z" />
    <path d="M4220 2855 c0 -3 2 -5 5 -5 3 0 5 2 5 5 0 3 -2 5 -5 5 -3 0 -5 -2 -5
-5z" />
    <path d="M3345 2840 l-30 -8 27 -1 27 -1 6 10 c3 6 5 9 3 9 -2 -1 -16 -5 -33
-9z" />
    <path d="M2630 2835 c0 -3 2 -5 5 -5 3 0 5 2 5 5 0 3 -2 5 -5 5 -3 0 -5 -2 -5
-5z" />
    <path d="M3760 2835 c0 -3 2 -5 5 -5 3 0 5 2 5 5 0 3 -2 5 -5 5 -3 0 -5 -2 -5
-5z" />
    <path d="M2540 2795 c0 -3 2 -5 5 -5 3 0 5 2 5 5 0 3 -2 5 -5 5 -3 0 -5 -2 -5
-5z" />
    <path d="M3670 2795 c0 -3 2 -5 5 -5 3 0 5 2 5 5 0 3 -2 5 -5 5 -3 0 -5 -2 -5
-5z" />
    <path d="M2750 2775 c0 -3 2 -5 5 -5 3 0 5 2 5 5 0 3 -2 5 -5 5 -3 0 -5 -2 -5
-5z" />
    <path d="M3880 2775 c0 -3 2 -5 5 -5 3 0 5 2 5 5 0 3 -2 5 -5 5 -3 0 -5 -2 -5
-5z" />
    <path d="M3420 2765 c0 -3 2 -5 5 -5 3 0 5 2 5 5 0 3 -2 5 -5 5 -3 0 -5 -2 -5
-5z" />
  </g>
  <g transform="translate(0.000000,500.000000) scale(0.100000,-0.100000)" fill="#e9e4eb" stroke="none">
    <path d="M610 3865 c0 -3 2 -5 5 -5 3 0 5 2 5 5 0 3 -2 5 -5 5 -3 0 -5 -2 -5
-5z" />
    <path d="M680 3865 c0 -3 2 -5 5 -5 3 0 5 2 5 5 0 3 -2 5 -5 5 -3 0 -5 -2 -5
-5z" />
    <path d="M710 3855 c0 -3 2 -5 5 -5 3 0 5 2 5 5 0 3 -2 5 -5 5 -3 0 -5 -2 -5
-5z" />
    <path d="M550 3835 c0 -3 2 -5 5 -5 3 0 5 2 5 5 0 3 -2 5 -5 5 -3 0 -5 -2 -5
-5z" />
    <path d="M740 3835 c0 -3 2 -5 5 -5 3 0 5 2 5 5 0 3 -2 5 -5 5 -3 0 -5 -2 -5
-5z" />
    <path d="M530 3815 c0 -3 2 -5 5 -5 3 0 5 2 5 5 0 3 -2 5 -5 5 -3 0 -5 -2 -5
-5z" />
    <path d="M770 3805 c0 -3 2 -5 5 -5 3 0 5 2 5 5 0 3 -2 5 -5 5 -3 0 -5 -2 -5
-5z" />
    <path d="M1280 3715 c0 -3 2 -5 5 -5 3 0 5 2 5 5 0 3 -2 5 -5 5 -3 0 -5 -2 -5
-5z" />
    <path d="M770 3625 c0 -3 2 -5 5 -5 3 0 5 2 5 5 0 3 -2 5 -5 5 -3 0 -5 -2 -5
-5z" />
    <path d="M1250 3625 c0 -3 2 -5 5 -5 3 0 5 2 5 5 0 3 -2 5 -5 5 -3 0 -5 -2 -5
-5z" />
    <path d="M535 3610 c3 -5 8 -10 11 -10 3 0 2 5 -1 10 -3 6 -8 10 -11 10 -3 0
-2 -4 1 -10z" />
    <path d="M740 3595 c0 -3 2 -5 5 -5 3 0 5 2 5 5 0 3 -2 5 -5 5 -3 0 -5 -2 -5
-5z" />
    <path d="M1110 3565 c0 -3 2 -5 5 -5 3 0 5 2 5 5 0 3 -2 5 -5 5 -3 0 -5 -2 -5
-5z" />
    <path d="M1040 3035 c0 -3 2 -5 5 -5 3 0 5 2 5 5 0 3 -2 5 -5 5 -3 0 -5 -2 -5
-5z" />
    <path d="M1120 3035 c0 -3 2 -5 5 -5 3 0 5 2 5 5 0 3 -2 5 -5 5 -3 0 -5 -2 -5
-5z" />
    <path d="M2610 3035 c0 -3 2 -5 5 -5 3 0 5 2 5 5 0 3 -2 5 -5 5 -3 0 -5 -2 -5
-5z" />
    <path d="M3740 3035 c0 -3 2 -5 5 -5 3 0 5 2 5 5 0 3 -2 5 -5 5 -3 0 -5 -2 -5
-5z" />
    <path d="M2340 3025 c0 -3 2 -5 5 -5 3 0 5 2 5 5 0 3 -2 5 -5 5 -3 0 -5 -2 -5
-5z" />
    <path d="M2730 3025 c0 -3 2 -5 5 -5 3 0 5 2 5 5 0 3 -2 5 -5 5 -3 0 -5 -2 -5
-5z" />
    <path d="M3860 3025 c0 -3 2 -5 5 -5 3 0 5 2 5 5 0 3 -2 5 -5 5 -3 0 -5 -2 -5
-5z" />
    <path d="M2770 2975 c0 -3 2 -5 5 -5 3 0 5 2 5 5 0 3 -2 5 -5 5 -3 0 -5 -2 -5
-5z" />
    <path d="M3460 2975 c0 -3 2 -5 5 -5 3 0 5 2 5 5 0 3 -2 5 -5 5 -3 0 -5 -2 -5
-5z" />
    <path d="M3900 2975 c0 -3 2 -5 5 -5 3 0 5 2 5 5 0 3 -2 5 -5 5 -3 0 -5 -2 -5
-5z" />
    <path d="M4138 2953 c18 -2 45 -2 60 0 l27 4 -60 0 -60 0 33 -4z" />
    <path d="M1670 2835 c0 -3 2 -5 5 -5 3 0 5 2 5 5 0 3 -2 5 -5 5 -3 0 -5 -2 -5
-5z" />
    <path d="M520 2765 c0 -3 2 -5 5 -5 3 0 5 2 5 5 0 3 -2 5 -5 5 -3 0 -5 -2 -5
-5z" />
    <path d="M1000 2765 c0 -3 2 -5 5 -5 3 0 5 2 5 5 0 3 -2 5 -5 5 -3 0 -5 -2 -5
-5z" />
    <path d="M4130 2765 c0 -3 2 -5 5 -5 3 0 5 2 5 5 0 3 -2 5 -5 5 -3 0 -5 -2 -5
-5z" />
    <path d="M1130 2755 c0 -3 2 -5 5 -5 3 0 5 2 5 5 0 3 -2 5 -5 5 -3 0 -5 -2 -5
-5z" />
  </g>
  <g transform="translate(0.000000,500.000000) scale(0.100000,-0.100000)" fill="#b6b6b6" stroke="none">
    <path d="M1080 3855 c0 -3 2 -5 5 -5 3 0 5 2 5 5 0 3 -2 5 -5 5 -3 0 -5 -2 -5
-5z" />
    <path d="M1200 3845 c0 -3 2 -5 5 -5 3 0 5 2 5 5 0 3 -2 5 -5 5 -3 0 -5 -2 -5
-5z" />
    <path d="M1024 3818 l-19 -23 23 19 c21 18 27 26 19 26 -2 0 -12 -10 -23 -22z" />
    <path d="M1270 3755 c0 -3 2 -5 5 -5 3 0 5 2 5 5 0 3 -2 5 -5 5 -3 0 -5 -2 -5
-5z" />
    <path d="M981 3714 l1 -19 5 13 5 13 -6 6 -6 6 1 -19z" />
    <path d="M1270 3675 c0 -3 2 -5 5 -5 3 0 5 2 5 5 0 3 -2 5 -5 5 -3 0 -5 -2 -5
-5z" />
    <path d="M990 3665 c0 -3 2 -5 5 -5 3 0 5 2 5 5 0 3 -2 5 -5 5 -3 0 -5 -2 -5
-5z" />
    <path d="M1025 3610 c3 -5 8 -10 11 -10 3 0 2 5 -1 10 -3 6 -8 10 -11 10 -3 0
-2 -4 1 -10z" />
    <path d="M1060 3585 c0 -3 2 -5 5 -5 3 0 5 2 5 5 0 3 -2 5 -5 5 -3 0 -5 -2 -5
-5z" />
    <path d="M1170 3575 c0 -3 2 -5 5 -5 3 0 5 2 5 5 0 3 -2 5 -5 5 -3 0 -5 -2 -5
-5z" />
    <path d="M4148 3023 c23 -2 59 -2 80 0 l37 4 -80 0 -80 0 43 -4z" />
    <path d="M4280 3015 c0 -3 2 -5 5 -5 3 0 5 2 5 5 0 3 -2 5 -5 5 -3 0 -5 -2 -5
-5z" />
    <path d="M4300 2995 c0 -3 2 -5 5 -5 3 0 5 2 5 5 0 3 -2 5 -5 5 -3 0 -5 -2 -5
-5z" />
    <path d="M4170 2925 c0 -3 2 -5 5 -5 3 0 5 2 5 5 0 3 -2 5 -5 5 -3 0 -5 -2 -5
-5z" />
    <path d="M4140 2865 c0 -3 2 -5 5 -5 3 0 5 2 5 5 0 3 -2 5 -5 5 -3 0 -5 -2 -5
-5z" />
    <path d="M4250 2865 c0 -3 2 -5 5 -5 3 0 5 2 5 5 0 3 -2 5 -5 5 -3 0 -5 -2 -5
-5z" />
    <path d="M4180 2855 c0 -3 2 -5 5 -5 3 0 5 2 5 5 0 3 -2 5 -5 5 -3 0 -5 -2 -5
-5z" />
    <path d="M4220 2830 l0 -13 7 6 6 7 -6 7 -7 6 0 -13z" />
  </g>
  <g transform="translate(0.000000,500.000000) scale(0.100000,-0.100000)" fill="#f3eef4" stroke="none">
    <path d="M520 3025 c0 -3 2 -5 5 -5 3 0 5 2 5 5 0 3 -2 5 -5 5 -3 0 -5 -2 -5
-5z" />
    <path d="M1490 3025 c0 -3 2 -5 5 -5 3 0 5 2 5 5 0 3 -2 5 -5 5 -3 0 -5 -2 -5
-5z" />
    <path d="M1060 2955 c0 -3 2 -5 5 -5 3 0 5 2 5 5 0 3 -2 5 -5 5 -3 0 -5 -2 -5
-5z" />
    <path d="M1100 2955 c0 -3 2 -5 5 -5 3 0 5 2 5 5 0 3 -2 5 -5 5 -3 0 -5 -2 -5
-5z" />
    <path d="M4110 2955 c0 -3 2 -5 5 -5 3 0 5 2 5 5 0 3 -2 5 -5 5 -3 0 -5 -2 -5
-5z" />
    <path d="M2683 2895 l0 -60 4 33 c2 18 2 45 0 60 l-4 27 0 -60z" />
    <path d="M3370 2945 c0 -3 2 -5 5 -5 3 0 5 2 5 5 0 3 -2 5 -5 5 -3 0 -5 -2 -5
-5z" />
    <path d="M3813 2895 l0 -60 4 33 c2 18 2 45 0 60 l-4 27 0 -60z" />
    <path d="M3360 2835 c0 -3 2 -5 5 -5 3 0 5 2 5 5 0 3 -2 5 -5 5 -3 0 -5 -2 -5
-5z" />
    <path d="M4220 2835 c0 -3 2 -5 5 -5 3 0 5 2 5 5 0 3 -2 5 -5 5 -3 0 -5 -2 -5
-5z" />
    <path d="M1550 2805 c0 -3 2 -5 5 -5 3 0 5 2 5 5 0 3 -2 5 -5 5 -3 0 -5 -2 -5
-5z" />
    <path d="M1660 2805 c0 -3 2 -5 5 -5 3 0 5 2 5 5 0 3 -2 5 -5 5 -3 0 -5 -2 -5
-5z" />
    <path d="M1030 2755 c0 -3 2 -5 5 -5 3 0 5 2 5 5 0 3 -2 5 -5 5 -3 0 -5 -2 -5
-5z" />
  </g>
</svg>